<svg viewBox="0 0 180 137" fill="currentColor" xmlns="http://www.w3.org/2000/svg">
<path d="M66 90C70.9706 90 75 85.9706 75 81C75 76.0294 70.9706 72 66 72C61.0294 72 57 76.0294 57 81C57 85.9706 61.0294 90 66 90Z" />
<path d="M114 90C118.971 90 123 85.9706 123 81C123 76.0294 118.971 72 114 72C109.029 72 105 76.0294 105 81C105 85.9706 109.029 90 114 90Z" />
<path fill-rule="evenodd" clip-rule="evenodd" d="M89.9556 32.9998C76.9487 32.9036 64.0063 34.8353 51.5943 38.7253C48.4323 39.7163 45.0656 37.9564 44.0746 34.7943C43.0835 31.6323 44.8435 28.2655 48.0055 27.2745C61.5932 23.016 75.7611 20.8991 89.9999 20.9998C104.239 20.8991 118.407 23.016 131.994 27.2745C135.156 28.2655 136.916 31.6323 135.925 34.7943C134.934 37.9564 131.568 39.7163 128.406 38.7253C115.994 34.8353 103.051 32.9036 90.0443 32.9998C90.0147 33 89.9852 33 89.9556 32.9998Z" />
<path fill-rule="evenodd" clip-rule="evenodd" d="M44.0746 103.205C45.0656 100.043 48.4323 98.2835 51.5943 99.2745C64.0063 103.165 76.9487 105.096 89.9556 105C89.9852 105 90.0147 105 90.0443 105C103.051 105.096 115.994 103.165 128.406 99.2745C131.568 98.2835 134.934 100.043 135.925 103.205C136.916 106.368 135.156 109.734 131.994 110.725C118.407 114.984 104.239 117.101 89.9999 117C75.7611 117.101 61.5932 114.984 48.0055 110.725C44.8435 109.734 43.0835 106.368 44.0746 103.205Z" />
<path fill-rule="evenodd" clip-rule="evenodd" d="M123.827 0.587726C131.732 2.30097 139.472 4.70444 146.957 7.77047C148.642 8.42013 150.155 9.44878 151.38 10.7773C152.617 12.1201 153.525 13.7322 154.032 15.486L179.447 100.352C179.448 100.353 179.448 100.353 179.448 100.354C180.11 102.564 180.125 104.918 179.491 107.137C178.857 109.356 177.6 111.347 175.87 112.874L175.839 112.902C163.434 123.695 146.626 131.865 127.534 136.545C124.882 137.221 122.078 136.958 119.597 135.801C117.126 134.648 115.129 132.678 113.942 130.226L104.893 112.276C103.401 109.317 104.59 105.709 107.549 104.218C110.508 102.726 114.116 103.915 115.608 106.874L124.683 124.874C124.685 124.879 124.687 124.883 124.689 124.887C142.301 120.568 157.256 113.155 167.934 103.873C167.943 103.864 167.95 103.853 167.953 103.84C167.957 103.827 167.957 103.812 167.953 103.798L142.536 18.9269C142.515 18.9185 142.494 18.9099 142.473 18.9013C135.615 16.0879 128.524 13.8837 121.28 12.3142L121.266 12.3113C121.249 12.3074 121.23 12.3102 121.214 12.3193C121.199 12.3274 121.188 12.3401 121.181 12.3553L115.272 30.2333C114.232 33.3796 110.838 35.0871 107.692 34.0471C104.546 33.0071 102.838 29.6135 103.878 26.4672L109.803 8.54219L109.821 8.49008C110.778 5.68151 112.735 3.3236 115.32 1.8663C117.903 0.410115 120.931 -0.0449362 123.827 0.587726Z" />
<path fill-rule="evenodd" clip-rule="evenodd" d="M58.7864 12.3193C58.7704 12.3102 58.7515 12.3074 58.7335 12.3113L58.7205 12.3142C51.4765 13.8837 44.3847 16.0879 37.5273 18.9013C37.5061 18.9099 37.4849 18.9185 37.4636 18.9269L12.0472 103.798C12.0431 103.812 12.043 103.827 12.047 103.84C12.0505 103.853 12.0572 103.864 12.0663 103.873C22.7444 113.155 37.6987 120.568 55.3107 124.887C55.3129 124.883 55.3151 124.879 55.3173 124.874L64.3923 106.874C65.8841 103.915 69.4921 102.726 72.4511 104.218C75.41 105.709 76.5993 109.317 75.1075 112.276L66.058 130.226C64.8708 132.678 62.874 134.648 60.4034 135.801C57.9225 136.958 55.1177 137.221 52.4656 136.545C33.3742 131.865 16.5661 123.695 4.16141 112.902L4.13043 112.874C2.39964 111.347 1.14276 109.356 0.508665 107.137C-0.125263 104.918 -0.110166 102.564 0.552146 100.354C0.552317 100.353 0.552486 100.353 0.552657 100.352L25.9675 15.486C26.4747 13.7322 27.3828 12.1201 28.6203 10.7773C29.8446 9.44877 31.3579 8.42013 33.0427 7.77048C40.5281 4.70435 48.2681 2.30082 56.1736 0.587562C59.0699 -0.0448577 62.0977 0.410241 64.6801 1.8663C67.2647 3.32359 69.2223 5.6815 70.1793 8.49008L70.1968 8.54219L76.1218 26.4672C77.1618 29.6135 75.4543 33.0071 72.308 34.0471C69.1617 35.0871 65.7681 33.3796 64.7281 30.2333L58.8186 12.3552C58.8122 12.3401 58.8009 12.3274 58.7864 12.3193Z" />
<path d="M66 90C70.9706 90 75 85.9706 75 81C75 76.0294 70.9706 72 66 72C61.0294 72 57 76.0294 57 81C57 85.9706 61.0294 90 66 90Z" />
<path d="M114 90C118.971 90 123 85.9706 123 81C123 76.0294 118.971 72 114 72C109.029 72 105 76.0294 105 81C105 85.9706 109.029 90 114 90Z" />
<path fill-rule="evenodd" clip-rule="evenodd" d="M89.9556 32.9998C76.9487 32.9036 64.0063 34.8353 51.5943 38.7253C48.4323 39.7163 45.0656 37.9564 44.0746 34.7943C43.0835 31.6323 44.8435 28.2655 48.0055 27.2745C61.5932 23.016 75.7611 20.8991 89.9999 20.9998C104.239 20.8991 118.407 23.016 131.994 27.2745C135.156 28.2655 136.916 31.6323 135.925 34.7943C134.934 37.9564 131.568 39.7163 128.406 38.7253C115.994 34.8353 103.051 32.9036 90.0443 32.9998C90.0147 33 89.9852 33 89.9556 32.9998Z" />
<path fill-rule="evenodd" clip-rule="evenodd" d="M44.0746 103.205C45.0656 100.043 48.4323 98.2835 51.5943 99.2745C64.0063 103.165 76.9487 105.096 89.9556 105C89.9852 105 90.0147 105 90.0443 105C103.051 105.096 115.994 103.165 128.406 99.2745C131.568 98.2835 134.934 100.043 135.925 103.205C136.916 106.368 135.156 109.734 131.994 110.725C118.407 114.984 104.239 117.101 89.9999 117C75.7611 117.101 61.5932 114.984 48.0055 110.725C44.8435 109.734 43.0835 106.368 44.0746 103.205Z" />
<path fill-rule="evenodd" clip-rule="evenodd" d="M123.827 0.587726C131.732 2.30097 139.472 4.70444 146.957 7.77047C148.642 8.42013 150.155 9.44878 151.38 10.7773C152.617 12.1201 153.525 13.7322 154.032 15.486L179.447 100.352C179.448 100.353 179.448 100.353 179.448 100.354C180.11 102.564 180.125 104.918 179.491 107.137C178.857 109.356 177.6 111.347 175.87 112.874L175.839 112.902C163.434 123.695 146.626 131.865 127.534 136.545C124.882 137.221 122.078 136.958 119.597 135.801C117.126 134.648 115.129 132.678 113.942 130.226L104.893 112.276C103.401 109.317 104.59 105.709 107.549 104.218C110.508 102.726 114.116 103.915 115.608 106.874L124.683 124.874C124.685 124.879 124.687 124.883 124.689 124.887C142.301 120.568 157.256 113.155 167.934 103.873C167.943 103.864 167.95 103.853 167.953 103.84C167.957 103.827 167.957 103.812 167.953 103.798L142.536 18.9269C142.515 18.9185 142.494 18.9099 142.473 18.9013C135.615 16.0879 128.524 13.8837 121.28 12.3142L121.266 12.3113C121.249 12.3074 121.23 12.3102 121.214 12.3193C121.199 12.3274 121.188 12.3401 121.181 12.3553L115.272 30.2333C114.232 33.3796 110.838 35.0871 107.692 34.0471C104.546 33.0071 102.838 29.6135 103.878 26.4672L109.803 8.54219L109.821 8.49008C110.778 5.68151 112.735 3.3236 115.32 1.8663C117.903 0.410115 120.931 -0.0449362 123.827 0.587726Z" />
<path fill-rule="evenodd" clip-rule="evenodd" d="M58.7864 12.3193C58.7704 12.3102 58.7515 12.3074 58.7335 12.3113L58.7205 12.3142C51.4765 13.8837 44.3847 16.0879 37.5273 18.9013C37.5061 18.9099 37.4849 18.9185 37.4636 18.9269L12.0472 103.798C12.0431 103.812 12.043 103.827 12.047 103.84C12.0505 103.853 12.0572 103.864 12.0663 103.873C22.7444 113.155 37.6987 120.568 55.3107 124.887C55.3129 124.883 55.3151 124.879 55.3173 124.874L64.3923 106.874C65.8841 103.915 69.4921 102.726 72.4511 104.218C75.41 105.709 76.5993 109.317 75.1075 112.276L66.058 130.226C64.8708 132.678 62.874 134.648 60.4034 135.801C57.9225 136.958 55.1177 137.221 52.4656 136.545C33.3742 131.865 16.5661 123.695 4.16141 112.902L4.13043 112.874C2.39964 111.347 1.14276 109.356 0.508665 107.137C-0.125263 104.918 -0.110166 102.564 0.552146 100.354C0.552317 100.353 0.552486 100.353 0.552657 100.352L25.9675 15.486C26.4747 13.7322 27.3828 12.1201 28.6203 10.7773C29.8446 9.44877 31.3579 8.42013 33.0427 7.77048C40.5281 4.70435 48.2681 2.30082 56.1736 0.587562C59.0699 -0.0448577 62.0977 0.410241 64.6801 1.8663C67.2647 3.32359 69.2223 5.6815 70.1793 8.49008L70.1968 8.54219L76.1218 26.4672C77.1618 29.6135 75.4543 33.0071 72.308 34.0471C69.1617 35.0871 65.7681 33.3796 64.7281 30.2333L58.8186 12.3552C58.8122 12.3401 58.8009 12.3274 58.7864 12.3193Z" />
</svg>
