<svg width="156" height="156" viewBox="0 0 156 156" fill="currentColor" xmlns="http://www.w3.org/2000/svg">
<path fill-rule="evenodd" clip-rule="evenodd" d="M78 12C41.5492 12 12 41.5492 12 78C12 114.451 41.5492 144 78 144C114.451 144 144 114.451 144 78C144 41.5492 114.451 12 78 12ZM0 78C0 34.9218 34.9218 0 78 0C121.078 0 156 34.9218 156 78C156 121.078 121.078 156 78 156C34.9218 156 0 121.078 0 78Z" />
<path fill-rule="evenodd" clip-rule="evenodd" d="M66 72C66 68.6863 68.6863 66 72 66H78C81.3137 66 84 68.6863 84 72V108C87.3137 108 90 110.686 90 114C90 117.314 87.3137 120 84 120H78C74.6863 120 72 117.314 72 114V78C68.6863 78 66 75.3137 66 72Z" />
<path d="M76.5 54C81.4706 54 85.5 49.9706 85.5 45C85.5 40.0294 81.4706 36 76.5 36C71.5294 36 67.5 40.0294 67.5 45C67.5 49.9706 71.5294 54 76.5 54Z" />
</svg>
