<svg width="180" height="180" viewBox="0 0 180 180" fill="currentColor" xmlns="http://www.w3.org/2000/svg">
<path fill-rule="evenodd" clip-rule="evenodd" d="M90 51C68.4609 51 51 68.4609 51 90C51 111.539 68.4609 129 90 129C111.539 129 129 111.539 129 90C129 68.4609 111.539 51 90 51ZM39 90C39 61.8335 61.8335 39 90 39C118.167 39 141 61.8335 141 90C141 118.167 118.167 141 90 141C61.8335 141 39 118.167 39 90Z" />
<path d="M90 21V6" stroke="black" stroke-width="12" stroke-linecap="round" stroke-linejoin="round"/>
<path fill-rule="evenodd" clip-rule="evenodd" d="M26.3575 26.3575C28.7006 24.0143 32.4996 24.0143 34.8427 26.3575L45.4177 36.9325C47.7609 39.2756 47.7609 43.0746 45.4177 45.4177C43.0746 47.7609 39.2756 47.7609 36.9325 45.4177L26.3575 34.8427C24.0143 32.4996 24.0143 28.7006 26.3575 26.3575Z" />
<path fill-rule="evenodd" clip-rule="evenodd" d="M0 90C0 86.6863 2.68629 84 6 84H21C24.3137 84 27 86.6863 27 90C27 93.3137 24.3137 96 21 96H6C2.68629 96 0 93.3137 0 90Z" />
<path fill-rule="evenodd" clip-rule="evenodd" d="M45.4177 134.582C47.7609 136.925 47.7609 140.724 45.4177 143.068L34.8427 153.643C32.4996 155.986 28.7006 155.986 26.3575 153.643C24.0143 151.299 24.0143 147.5 26.3575 145.157L36.9325 134.582C39.2756 132.239 43.0746 132.239 45.4177 134.582Z" />
<path fill-rule="evenodd" clip-rule="evenodd" d="M90 153C93.3137 153 96 155.686 96 159V174C96 177.314 93.3137 180 90 180C86.6863 180 84 177.314 84 174V159C84 155.686 86.6863 153 90 153Z" />
<path fill-rule="evenodd" clip-rule="evenodd" d="M134.582 134.582C136.925 132.239 140.724 132.239 143.068 134.582L153.643 145.157C155.986 147.5 155.986 151.299 153.643 153.643C151.299 155.986 147.5 155.986 145.157 153.643L134.582 143.068C132.239 140.724 132.239 136.925 134.582 134.582Z" />
<path fill-rule="evenodd" clip-rule="evenodd" d="M153 90C153 86.6863 155.686 84 159 84H174C177.314 84 180 86.6863 180 90C180 93.3137 177.314 96 174 96H159C155.686 96 153 93.3137 153 90Z" />
<path fill-rule="evenodd" clip-rule="evenodd" d="M153.643 26.3575C155.986 28.7006 155.986 32.4996 153.643 34.8427L143.068 45.4177C140.724 47.7609 136.925 47.7609 134.582 45.4177C132.239 43.0746 132.239 39.2756 134.582 36.9325L145.157 26.3575C147.5 24.0143 151.299 24.0143 153.643 26.3575Z" />
</svg>
