<svg width="163" height="149" viewBox="0 0 163 149" fill="currentColor" xmlns="http://www.w3.org/2000/svg">
<path fill-rule="evenodd" clip-rule="evenodd" d="M146.256 1.70566C148.283 0.920118 150.484 0.699585 152.626 1.0676C154.768 1.43562 156.769 2.37836 158.417 3.79523C160.065 5.21207 161.297 7.04983 161.982 9.1123C162.667 11.1748 162.779 13.3845 162.306 15.5057L162.299 15.5392L134.098 138.692C133.632 140.721 132.647 142.594 131.239 144.126C129.83 145.659 128.048 146.799 126.066 147.435C124.084 148.07 121.971 148.179 119.934 147.751C117.9 147.323 116.012 146.375 114.455 144.999C114.453 144.997 114.45 144.995 114.448 144.992L48.2433 86.7413L9.84408 79.0326L9.81936 79.0276C-1.71436 76.6617 -3.48675 60.5062 7.78578 56.0886L146.232 1.71525L146.256 1.70566ZM12.2056 67.2668C12.2042 67.2604 12.203 67.2537 12.2019 67.2465L150.594 12.8943L122.402 136.007L122.388 135.995L54.9634 76.6704C54.1729 75.9748 53.2133 75.4996 52.181 75.2923L12.2307 67.2724C12.2285 67.2719 12.2264 67.2715 12.2243 67.271C12.2176 67.2696 12.2114 67.2682 12.2056 67.2668Z" />
<path fill-rule="evenodd" clip-rule="evenodd" d="M157.939 3.93683C159.879 6.62313 159.274 10.3737 156.588 12.3139L54.513 86.0389C51.8267 87.9791 48.0762 87.3743 46.136 84.688C44.1958 82.0017 44.8006 78.2511 47.4869 76.3109L149.562 2.58592C152.248 0.645704 155.999 1.25053 157.939 3.93683Z" />
<path fill-rule="evenodd" clip-rule="evenodd" d="M51 75.175C54.3137 75.175 57 77.8613 57 81.175L57 129.99L57.0324 129.957L80.4324 106.557C82.7755 104.214 86.5745 104.214 88.9176 106.557C91.2608 108.901 91.2608 112.7 88.9176 115.043L65.5311 138.429C63.8643 140.114 61.7356 141.268 59.4135 141.745C57.0827 142.223 54.6622 141.998 52.4596 141.098C50.2569 140.198 48.3718 138.663 47.0435 136.688C45.7153 134.714 45.004 132.39 45 130.01L45 81.175C45 77.8613 47.6863 75.175 51 75.175Z" />
</svg>
