<svg viewBox="0 0 164 145" fill="currentColor" xmlns="http://www.w3.org/2000/svg">
<path fill-rule="evenodd" clip-rule="evenodd" d="M104.293 12.9995C91.1482 12.8202 79.9999 23.8361 79.9999 37.0001V49.0001C79.9999 50.7638 79.2239 52.4382 77.8781 53.5782C76.5324 54.7182 74.7532 55.2084 73.0135 54.9184C53.7832 51.7134 36.4406 42.178 24.1007 33.6943C19.5359 30.556 15.6001 27.5229 12.4431 24.9375C10.2899 50.2612 17.905 67.7566 26.3302 79.1909C31.1751 85.7661 36.365 90.4342 40.3205 93.4438C42.2949 94.9461 43.9499 96.026 45.082 96.7156C45.6476 97.0601 46.0811 97.3062 46.357 97.458C46.4948 97.5339 46.5931 97.5862 46.6486 97.6153C46.6763 97.6298 46.6934 97.6385 46.6993 97.6416L46.6936 97.6387L46.6889 97.6364M43.9999 103L46.6832 97.6335C46.6851 97.6345 46.687 97.6354 46.6889 97.6364C46.6861 97.635 46.6832 97.6335 43.9999 103ZM35.2129 104.576C36.5852 103.024 37.863 101.389 39.0076 99.6719L43.9999 103C41.3166 108.367 41.3133 108.365 41.3098 108.363L41.3018 108.359L41.2826 108.349L41.231 108.323C41.1909 108.303 41.1392 108.276 41.0765 108.243C40.9511 108.177 40.7813 108.087 40.5705 107.971C40.1491 107.739 39.5631 107.405 38.8397 106.964C37.8621 106.369 36.6306 105.577 35.2129 104.576ZM5.89314 124.382C5.89104 124.383 5.88894 124.384 5.88684 124.384C4.17544 125.028 2.85096 126.418 2.28957 128.158C1.7275 129.901 1.99191 131.805 3.00758 133.328L7.99988 130C3.00758 133.328 3.01061 133.333 3.01366 133.337L3.01991 133.347L3.03289 133.366L3.06083 133.407C3.08035 133.435 3.10165 133.466 3.12478 133.498C3.17105 133.564 3.22463 133.637 3.28592 133.718C3.40853 133.88 3.56186 134.073 3.74903 134.292C4.12371 134.729 4.6322 135.266 5.29859 135.866C6.63571 137.069 8.58302 138.5 11.3166 139.867C16.795 142.606 25.245 145 37.9969 145M20.5579 130.695C21.8342 130.002 23.1857 129.236 24.5869 128.395C32.4324 123.688 42.2869 116.386 48.9922 106.328C49.9468 104.896 50.2406 103.123 49.7989 101.46C49.3587 99.8026 48.2303 98.4129 46.6993 97.6416M20.5579 130.695C18.2168 131.965 16.1288 132.986 14.4517 133.76C13.1537 134.359 12.0955 134.813 11.3487 135.122C10.9751 135.277 10.6789 135.395 10.4691 135.478C10.3641 135.519 10.2807 135.552 10.22 135.575L10.1459 135.603L10.1131 135.616L10.1096 135.617C10.1081 135.617 10.1066 135.618 7.99988 130C12.9922 126.672 12.9892 126.667 12.9862 126.663L12.9804 126.654L12.9691 126.637L12.9478 126.606C12.9342 126.587 12.9219 126.569 12.9109 126.553C12.8888 126.522 12.8718 126.499 12.8603 126.484C12.846 126.465 12.8402 126.458 12.8436 126.462C12.8457 126.465 12.8511 126.472 12.8601 126.482C12.9073 126.537 13.0551 126.703 13.3262 126.947C13.8641 127.431 14.9167 128.25 16.6832 129.133C17.7057 129.645 18.9837 130.185 20.5579 130.695ZM20.5579 130.695C24.4043 131.94 30.0195 133 37.9999 133H38.0028C60.8621 133.011 82.8676 124.317 99.5455 108.684C116.223 93.0504 126.322 71.6526 127.787 48.8404C127.881 47.3851 128.501 46.0136 129.532 44.9824L143.515 31.0001H131.525C129.139 31.0001 126.98 29.5864 126.026 27.3997C124.177 23.1625 121.143 19.5494 117.29 16.9949C113.437 14.4404 108.928 13.053 104.306 12.9997L104.293 12.9995M37.9999 145C63.9085 145.012 88.8494 135.157 107.752 117.439C126.098 100.242 137.419 76.8924 139.59 51.8953L162.243 29.2427C163.959 27.5267 164.472 24.946 163.543 22.704C162.614 20.4619 160.427 19.0001 158 19.0001H135.207C132.433 14.1949 128.576 10.0793 123.921 6.99334C118.143 3.16268 111.382 1.08177 104.45 1.00053C84.5982 0.733304 67.9999 17.1661 67.9999 37.0001V41.5869C53.9007 37.9198 40.9228 30.6971 30.8991 23.8058C25.1124 19.8275 20.4102 16.0291 17.165 13.2347C15.5443 11.8391 14.2921 10.6983 13.4552 9.91642C13.0369 9.52562 12.7227 9.22488 12.5186 9.02727C12.4165 8.92847 12.342 8.85549 12.2957 8.80996L12.2476 8.76247L12.2408 8.75568C12.2404 8.75533 12.2399 8.75481 12.2396 8.75447C10.6616 7.17867 8.33971 6.60798 6.21088 7.27297C4.08072 7.93839 2.49588 9.73107 2.09666 11.9267C-4.21689 46.6513 5.25017 70.8115 16.6695 86.3092C22.3247 93.9841 28.3848 99.4409 33.0543 102.994C33.8116 103.57 34.5337 104.097 35.2129 104.576C30.2374 110.205 24.0207 114.74 18.4129 118.105C14.8842 120.222 11.7066 121.811 9.42303 122.865C8.28356 123.391 7.37304 123.781 6.76046 124.034C6.45434 124.161 6.22317 124.253 6.0756 124.311C6.00183 124.34 5.94901 124.361 5.91822 124.372L5.89314 124.382L7.99988 130C5.89314 124.382 5.89188 124.383 5.89071 124.383L5.89314 124.382" />
</svg>
