<svg width="150" height="132" viewBox="0 0 150 132" fill="currentColor" xmlns="http://www.w3.org/2000/svg">
<path fill-rule="evenodd" clip-rule="evenodd" d="M18 12C16.4087 12 14.8826 12.6321 13.7574 13.7574C12.6321 14.8826 12 16.4087 12 18C12 19.5913 12.6321 21.1174 13.7574 22.2426C14.8826 23.3679 16.4087 24 18 24H138C141.183 24 144.235 25.2643 146.485 27.5147C148.736 29.7652 150 32.8174 150 36V120C150 123.183 148.736 126.235 146.485 128.485C144.235 130.736 141.183 132 138 132H18C13.2261 132 8.64773 130.104 5.27208 126.728C1.89642 123.352 0 118.774 0 114V18C0 13.2261 1.89642 8.64773 5.27208 5.27208C8.64773 1.89642 13.2261 0 18 0H120C123.314 0 126 2.68629 126 6C126 9.31371 123.314 12 120 12H18ZM12 34.9706V114C12 115.591 12.6321 117.117 13.7574 118.243C14.8826 119.368 16.4087 120 18 120H138V36H18C15.9363 36 13.9092 35.6456 12 34.9706Z"/>
<path d="M111 87C115.971 87 120 82.9706 120 78C120 73.0294 115.971 69 111 69C106.029 69 102 73.0294 102 78C102 82.9706 106.029 87 111 87Z"/>
</svg>
