<svg  viewBox="0 0 168 132" fill="currentColor" xmlns="http://www.w3.org/2000/svg">
<path fill-rule="evenodd" clip-rule="evenodd" d="M69.1689 36.71C71.1198 35.6658 73.4871 35.7803 75.3282 37.0077L111.328 61.0077C112.997 62.1205 114 63.9939 114 66C114 68.0061 112.997 69.8795 111.328 70.9923L75.3282 94.9923C73.4871 96.2197 71.1198 96.3342 69.1689 95.2901C67.2179 94.2459 66 92.2128 66 90V42C66 39.7872 67.2179 37.7541 69.1689 36.71ZM78 53.2111V78.7889L97.1833 66L78 53.2111Z"/>
<path fill-rule="evenodd" clip-rule="evenodd" d="M83.9911 0.299923L83.8898 0.299667C83.8027 0.299522 83.6765 0.299478 83.513 0.299844C83.186 0.300575 82.7098 0.302947 82.0987 0.309432C80.8766 0.322399 79.1135 0.351826 76.9235 0.417556C72.547 0.548912 66.4474 0.825777 59.5421 1.40878C45.884 2.56193 28.4957 4.9551 15.1085 10.0702C15.079 10.0815 15.0496 10.093 15.0203 10.1047C12.3906 11.1573 10.0452 12.8132 8.17309 14.9388C6.30098 17.0644 4.95464 19.6003 4.24265 22.3418L4.23682 22.3644C2.36837 29.6758 0 43.2338 0 66C0 88.7662 2.36837 102.324 4.23682 109.636L4.24265 109.658C4.95464 112.4 6.30098 114.936 8.17309 117.061C10.0452 119.187 12.3906 120.843 15.0203 121.895C15.0496 121.907 15.079 121.919 15.1085 121.93C28.4957 127.045 45.884 129.438 59.5421 130.591C66.4474 131.174 72.547 131.451 76.9235 131.582C79.1135 131.648 80.8766 131.678 82.0987 131.691C82.7098 131.697 83.186 131.699 83.513 131.7C83.6765 131.701 83.8027 131.701 83.8898 131.7L83.9911 131.7H84.0089L84.1102 131.7C84.1973 131.701 84.3235 131.701 84.487 131.7C84.814 131.699 85.2902 131.697 85.9013 131.691C87.1234 131.678 88.8865 131.648 91.0765 131.582C95.453 131.451 101.553 131.174 108.458 130.591C122.116 129.438 139.504 127.045 152.892 121.93C152.921 121.919 152.95 121.907 152.98 121.895C155.609 120.843 157.955 119.187 159.827 117.061C161.699 114.936 163.045 112.4 163.757 109.658L163.763 109.636C165.632 102.324 168 88.7662 168 66C168 43.2338 165.632 29.6758 163.763 22.3644L163.757 22.3418C163.045 19.6003 161.699 17.0644 159.827 14.9388C157.955 12.8132 155.609 11.1573 152.98 10.1047C152.95 10.093 152.921 10.0815 152.892 10.0702C139.504 4.9551 122.116 2.56193 108.458 1.40878C101.553 0.825777 95.453 0.548912 91.0765 0.417556C88.8865 0.351826 87.1234 0.322399 85.9013 0.309432C85.2902 0.302947 84.814 0.300575 84.487 0.299844C84.3235 0.299478 84.1973 0.299522 84.1102 0.299667L84.0089 0.299923H83.9911ZM84.0324 119.7L84.0516 119.7L84.1302 119.7C84.2021 119.701 84.3127 119.701 84.4602 119.7C84.7552 119.7 85.1979 119.697 85.774 119.691C86.9264 119.679 88.6116 119.651 90.7165 119.588C94.9298 119.461 100.807 119.195 107.448 118.634C120.865 117.501 136.824 115.212 148.558 110.74C149.426 110.385 150.201 109.834 150.822 109.13C151.449 108.418 151.9 107.569 152.14 106.652C153.721 100.459 156 87.919 156 66C156 44.0809 153.721 31.5411 152.14 25.3481C151.9 24.4305 151.449 23.5819 150.822 22.8701C150.201 22.1658 149.426 21.6149 148.558 21.2604C136.825 16.7883 120.865 14.499 107.448 13.3662C100.807 12.8055 94.9298 12.5386 90.7165 12.4122C88.6116 12.349 86.9264 12.321 85.774 12.3088C85.1979 12.3026 84.7552 12.3005 84.4602 12.2998C84.3127 12.2995 84.2021 12.2995 84.1302 12.2997L84.0516 12.2998L84.0324 12.2999C84.0321 12.2999 84.0327 12.2999 84.0324 12.2999M83.9676 12.2999L83.9484 12.2998L83.8698 12.2997C83.7979 12.2995 83.6873 12.2995 83.5398 12.2998C83.2448 12.3005 82.8021 12.3026 82.226 12.3088C81.0736 12.321 79.3884 12.349 77.2835 12.4122C73.0702 12.5386 67.1933 12.8055 60.5517 13.3662C47.1354 14.499 31.1755 16.7883 19.4424 21.2604C18.5737 21.6148 17.7987 22.1657 17.1784 22.8701C16.5513 23.582 16.0998 24.4309 15.8598 25.3487C14.2784 31.5419 12 44.0816 12 66C12 87.9183 14.2784 100.458 15.8598 106.651C16.0998 107.569 16.5513 108.418 17.1784 109.13C17.7988 109.834 18.5738 110.385 19.4426 110.74C31.1756 115.212 47.1355 117.501 60.5517 118.634C67.1933 119.195 73.0702 119.461 77.2835 119.588C79.3884 119.651 81.0736 119.679 82.226 119.691C82.8021 119.697 83.2448 119.7 83.5398 119.7C83.6873 119.701 83.7979 119.701 83.8698 119.7L83.9484 119.7L83.9676 119.7C83.9679 119.7 83.9673 119.7 83.9676 119.7C83.9789 119.7 83.9911 119.7 84.0024 119.7" />
</svg>
