<svg id="Layer_1" data-name="Layer 1" xmlns="http://www.w3.org/2000/svg" xmlns:xlink="http://www.w3.org/1999/xlink" viewBox="0 0 521.3027 241.2189"><defs><style>.cls-1{fill:none;}.cls-2,.cls-5{fill:#fff;}.cls-3,.cls-6{fill:#50aecb;}.cls-4{clip-path:url(#clip-path);}.cls-5,.cls-6{fill-rule:evenodd;}</style><clipPath id="clip-path"><rect class="cls-1" x="203.4426" width="114.4175" height="114.4175"/></clipPath></defs><path class="cls-2" d="M0,145.6831H51.9133v9.2959H31.0276v33.0195H20.8865V154.979H0Z"/><path class="cls-2" d="M69.2981,145.6831v16.48H100.929V145.6831H111.07v42.3154H100.929v-16.54H69.2981v16.54H59.157V145.6831Z"/><path class="cls-2" d="M119.5208,154.979v-9.2959h47.748v9.2959Zm0,7.1836h47.748v9.2959H129.6619v7.2441h37.6069v9.2959h-47.748Z"/><path class="cls-2" d="M175.72,175.2016V158.4809a11.9567,11.9567,0,0,1,1.0864-5.0712,13.0329,13.0329,0,0,1,7.123-6.7608,13.69,13.69,0,0,1,5.1309-.9658h25.1719a13.6928,13.6928,0,0,1,5.1308.9658,13.1717,13.1717,0,0,1,4.2256,2.6865,12.76,12.76,0,0,1,2.8672,4.0743,12.2528,12.2528,0,0,1,1.0567,5.0712v16.7207a12.0439,12.0439,0,0,1-1.0567,5.04,12.865,12.865,0,0,1-2.8672,4.0449,13.605,13.605,0,0,1-4.2256,2.7158,13.32,13.32,0,0,1-5.1308.9961H189.06a13.3169,13.3169,0,0,1-5.1309-.9961,13.6057,13.6057,0,0,1-4.2255-2.7158,13.2884,13.2884,0,0,1-2.8975-4.0449A11.7537,11.7537,0,0,1,175.72,175.2016Zm10.8652,2.1729a3.3368,3.3368,0,0,0,1.0264.9658,2.7642,2.7642,0,0,0,1.4487.3623h25.1719a2.7742,2.7742,0,0,0,2.2636-1.0869,3.757,3.757,0,0,0,.8755-2.4141V158.4809a3.7615,3.7615,0,0,0-.8755-2.415,2.7742,2.7742,0,0,0-2.2636-1.0869H189.06a2.7642,2.7642,0,0,0-1.4487.3623,3.3475,3.3475,0,0,0-1.0264.9658,5.3649,5.3649,0,0,0-.543,1.207,3.5785,3.5785,0,0,0-.1811.9668v16.7207a3.5718,3.5718,0,0,0,.1811.9659A5.3255,5.3255,0,0,0,186.5852,177.3745Z"/><path class="cls-2" d="M235.9626,145.6831h38.5728a13.6956,13.6956,0,0,1,5.1309.9658,13.0329,13.0329,0,0,1,7.123,6.7608,11.9567,11.9567,0,0,1,1.0864,5.0712v4.3457a11.7508,11.7508,0,0,1-1.0864,5.04,13.2884,13.2884,0,0,1-2.8975,4.0449,13.6011,13.6011,0,0,1-4.2255,2.7158,13.3223,13.3223,0,0,1-5.1309.9961H246.1038v12.375H235.9626V166.3276h38.5728a2.8554,2.8554,0,0,0,2.2637-1.1162,3.6573,3.6573,0,0,0,.9355-2.3848v-4.3457a3.5785,3.5785,0,0,0-.1811-.9668,5.3452,5.3452,0,0,0-.5435-1.207,3.3616,3.3616,0,0,0-1.0259-.9658,2.7692,2.7692,0,0,0-1.4487-.3623H235.9626Z"/><path class="cls-2" d="M295.9636,154.979v-9.2959h47.7481v9.2959Zm0,7.1836h47.7481v9.2959h-37.607v7.2441h37.607v9.2959H295.9636Z"/><path class="cls-2" d="M350.9553,145.6831h51.9131v9.2959H381.9827v33.0195H371.8416V154.979H350.9553Z"/><path class="cls-2" d="M448.6848,145.6831a13.6952,13.6952,0,0,1,5.1309.9658,13.032,13.032,0,0,1,7.123,6.7608,11.9567,11.9567,0,0,1,1.0864,5.0712v4.3457a12.1246,12.1246,0,0,1-1.0263,5.01,12.4293,12.4293,0,0,1-2.8067,3.9844,13.6124,13.6124,0,0,1-4.165,2.6865,14.6981,14.6981,0,0,1-5.0405,1.1162l13.8232,12.375H448.1414l-21.3086-18.9541v-2.7168h21.852a2.8554,2.8554,0,0,0,2.2637-1.1162,3.6573,3.6573,0,0,0,.9355-2.3848v-4.3457a3.5785,3.5785,0,0,0-.1811-.9668,5.3452,5.3452,0,0,0-.5435-1.207,3.3616,3.3616,0,0,0-1.0259-.9658,2.7692,2.7692,0,0,0-1.4487-.3623H420.2532v33.0195H410.1121V145.6831Z"/><path class="cls-2" d="M468.7854,187.9985l21.4292-42.3154h9.6582l21.43,42.3154H508.988l-13.9443-27.5859L481.1,187.9985Z"/><path class="cls-3" d="M197.5573,214.368v21.9334H219.3v4.9175H192.91V214.368Zm26.4286,26.8509,13.329-26.8509h4.8789l13.29,26.8509h-5.9528l-9.7963-19.7448L229.98,241.2189Zm57.8883-26.8509a7.1813,7.1813,0,0,1,3.3612.7492,7.7839,7.7839,0,0,1,2.42,1.9207,8.3336,8.3336,0,0,1,1.4791,2.5734,7.7053,7.7053,0,0,1,.2315,4.7438,7.678,7.678,0,0,1-.8081,1.9592l-.075.1158.1136.0761a7.3129,7.3129,0,0,1,2.8231,3.0547,8.4351,8.4351,0,0,1,.9046,3.7063,8.0711,8.0711,0,0,1-.4994,2.7084,8.4109,8.4109,0,0,1-1.4791,2.5734,7.81,7.81,0,0,1-2.42,1.9207,7.1873,7.1873,0,0,1-3.3612.7492h-24.047V214.368Zm0,10.986a2.9863,2.9863,0,0,0,1.3462-.2883,3.09,3.09,0,0,0,.96-.73,3.071,3.071,0,0,0,0-4.0332,3.1036,3.1036,0,0,0-.96-.73,2.9849,2.9849,0,0,0-1.3462-.2883H265.1647v6.07Zm2.69,10.9474a3.0925,3.0925,0,0,0,1.3634-.2872,2.9792,2.9792,0,0,0,1.5562-1.7095,2.9164,2.9164,0,0,0,0-2.0751,3.0635,3.0635,0,0,0-.5766-.9785,3.0282,3.0282,0,0,0-.98-.73,3.0789,3.0789,0,0,0-1.3634-.2883h-19.4v6.0685Zm19.7813-21.9334h21.32v4.9164h-21.32a3.0922,3.0922,0,0,0-1.3633.2883,2.9789,2.9789,0,0,0-1.5563,1.7095,2.9135,2.9135,0,0,0,0,2.074,2.9789,2.9789,0,0,0,1.5563,1.7095,3.0936,3.0936,0,0,0,1.3633.2883h16.2872a7.3721,7.3721,0,0,1,3.0353.6334,7.8773,7.8773,0,0,1,2.4781,1.7289,8.1061,8.1061,0,0,1,1.6505,2.5166,7.78,7.78,0,0,1,.596,3.0343,8.0689,8.0689,0,0,1-.5,2.7084,8.3241,8.3241,0,0,1-1.4791,2.5734,7.8108,7.8108,0,0,1-2.42,1.9207,7.1879,7.1879,0,0,1-3.3612.7492H299.2761v-4.9175h21.3568a3.0923,3.0923,0,0,0,1.3633-.2872,2.98,2.98,0,0,0,1.5563-1.7095,2.8868,2.8868,0,0,0,0-2.0751,2.9823,2.9823,0,0,0-1.5563-1.7084,3.0787,3.0787,0,0,0-1.3633-.2883H304.3457a7.4484,7.4484,0,0,1-3.0739-.6345,7.7475,7.7475,0,0,1-2.4566-1.7085,8.0272,8.0272,0,0,1-2.2294-5.57,8.0733,8.0733,0,0,1,.5-2.7084,8.3336,8.3336,0,0,1,1.4791-2.5734,7.7421,7.7421,0,0,1,2.4394-1.9207A7.2179,7.2179,0,0,1,304.3457,214.368Z"/><g class="cls-4"><path class="cls-5" d="M203.1489,15.8434A16.1361,16.1361,0,0,1,219.2861-.2937h82.1454a16.1355,16.1355,0,0,1,16.1349,16.1371V28.2593a4.4008,4.4008,0,0,1-8.8016,0V15.8434a7.3334,7.3334,0,0,0-7.3333-7.3354H219.2861a7.3352,7.3352,0,0,0-7.3355,7.3354V97.9888a7.3333,7.3333,0,0,0,7.3355,7.3333h82.1454a7.3315,7.3315,0,0,0,7.3333-7.3333V51.2817a4.4008,4.4008,0,1,1,8.8016,0V97.9888a16.1351,16.1351,0,0,1-16.1349,16.135H219.2861a16.1356,16.1356,0,0,1-16.1372-16.135Z"/></g><path class="cls-6" d="M260.6513,36.4078A8.7739,8.7739,0,0,0,256.8956,53.11a3.7581,3.7581,0,0,1,2.0161,4.3838l-5.8689,21.518h15.2189l-5.8689-21.518a3.7571,3.7571,0,0,1,2.0143-4.3838,8.7739,8.7739,0,0,0-3.7558-16.7021Zm-16.29,8.7713a16.29,16.29,0,1,1,26.0264,13.06L276.81,81.7823a3.7592,3.7592,0,0,1-3.6276,4.7482H248.1207a3.7614,3.7614,0,0,1-3.6276-4.7482L250.915,58.239A16.2642,16.2642,0,0,1,244.3613,45.1791Z"/></svg>