<svg id="Layer_1" data-name="Layer 1" xmlns="http://www.w3.org/2000/svg" xmlns:xlink="http://www.w3.org/1999/xlink" viewBox="0 0 521.3022 241.2189"><defs><style>.cls-1{fill:none;}.cls-2,.cls-5{fill:#2f455c;}.cls-3,.cls-6{fill:#50aecb;}.cls-4{clip-path:url(#clip-path);}.cls-5,.cls-6{fill-rule:evenodd;}</style><clipPath id="clip-path"><rect class="cls-1" x="203.2913" width="114.4175" height="114.4175"/></clipPath></defs><path class="cls-2" d="M0,145.6831H51.9131v9.2959H31.0273v33.0195H20.8862V154.979H0Z"/><path class="cls-2" d="M69.2979,145.6831v16.48h31.6308V145.6831H111.07v42.3154H100.9287v-16.54H69.2979v16.54H59.1567V145.6831Z"/><path class="cls-2" d="M119.5205,154.979v-9.2959h47.7481v9.2959Zm0,7.1836h47.7481v9.2959h-37.607v7.2441h37.607v9.2959H119.5205Z"/><path class="cls-2" d="M175.72,175.2016V158.4809a11.9553,11.9553,0,0,1,1.0865-5.0712,13.032,13.032,0,0,1,7.123-6.7608,13.69,13.69,0,0,1,5.1309-.9658h25.1718a13.6933,13.6933,0,0,1,5.1309.9658,13.1727,13.1727,0,0,1,4.2256,2.6865,12.76,12.76,0,0,1,2.8672,4.0743,12.2527,12.2527,0,0,1,1.0566,5.0712v16.7207a12.0438,12.0438,0,0,1-1.0566,5.04,12.865,12.865,0,0,1-2.8672,4.0449,13.6062,13.6062,0,0,1-4.2256,2.7158,13.32,13.32,0,0,1-5.1309.9961H189.06a13.3165,13.3165,0,0,1-5.1309-.9961,13.605,13.605,0,0,1-4.2256-2.7158,13.29,13.29,0,0,1-2.8974-4.0449A11.7523,11.7523,0,0,1,175.72,175.2016Zm10.8653,2.1729a3.3365,3.3365,0,0,0,1.0263.9658,2.7648,2.7648,0,0,0,1.4488.3623h25.1718a2.7745,2.7745,0,0,0,2.2637-1.0869,3.7576,3.7576,0,0,0,.8755-2.4141V158.4809a3.7621,3.7621,0,0,0-.8755-2.415,2.7745,2.7745,0,0,0-2.2637-1.0869H189.06a2.7648,2.7648,0,0,0-1.4488.3623,3.3472,3.3472,0,0,0-1.0263.9658,5.3649,5.3649,0,0,0-.543,1.207,3.5793,3.5793,0,0,0-.1812.9668v16.7207a3.5727,3.5727,0,0,0,.1812.9659A5.3255,5.3255,0,0,0,186.585,177.3745Z"/><path class="cls-2" d="M235.9624,145.6831h38.5728a13.6947,13.6947,0,0,1,5.1308.9658,13.0327,13.0327,0,0,1,7.1231,6.7608,11.9567,11.9567,0,0,1,1.0864,5.0712v4.3457a11.7508,11.7508,0,0,1-1.0864,5.04,13.29,13.29,0,0,1-2.8975,4.0449,13.6,13.6,0,0,1-4.2256,2.7158,13.3215,13.3215,0,0,1-5.1308.9961H246.1035v12.375H235.9624V166.3276h38.5728a2.8554,2.8554,0,0,0,2.2636-1.1162,3.657,3.657,0,0,0,.9356-2.3848v-4.3457a3.5793,3.5793,0,0,0-.1812-.9668,5.3447,5.3447,0,0,0-.5434-1.207,3.3639,3.3639,0,0,0-1.0259-.9658,2.7694,2.7694,0,0,0-1.4487-.3623H235.9624Z"/><path class="cls-2" d="M295.9634,154.979v-9.2959h47.748v9.2959Zm0,7.1836h47.748v9.2959H306.1045v7.2441h37.6069v9.2959h-47.748Z"/><path class="cls-2" d="M350.9551,145.6831h51.9131v9.2959H381.9824v33.0195H371.8413V154.979H350.9551Z"/><path class="cls-2" d="M448.6846,145.6831a13.6947,13.6947,0,0,1,5.1308.9658,13.0327,13.0327,0,0,1,7.1231,6.7608,11.9567,11.9567,0,0,1,1.0864,5.0712v4.3457a12.1247,12.1247,0,0,1-1.0264,5.01,12.4291,12.4291,0,0,1-2.8066,3.9844,13.6136,13.6136,0,0,1-4.165,2.6865,14.6992,14.6992,0,0,1-5.0406,1.1162l13.8233,12.375H448.1411l-21.3086-18.9541v-2.7168h21.8521a2.8554,2.8554,0,0,0,2.2636-1.1162,3.657,3.657,0,0,0,.9356-2.3848v-4.3457a3.5793,3.5793,0,0,0-.1812-.9668,5.3447,5.3447,0,0,0-.5434-1.207,3.3628,3.3628,0,0,0-1.0259-.9658,2.7692,2.7692,0,0,0-1.4487-.3623H420.2529v33.0195H410.1118V145.6831Z"/><path class="cls-2" d="M468.7852,187.9985l21.4292-42.3154h9.6582l21.43,42.3154H508.9878l-13.9443-27.5859L481.1,187.9985Z"/><path class="cls-3" d="M197.8293,214.368v21.9334H219.572v4.9175h-26.39V214.368Zm26.4286,26.8509,13.329-26.8509h4.8789l13.29,26.8509h-5.9528l-9.7963-19.7448-9.7556,19.7448Zm57.8883-26.8509a7.1813,7.1813,0,0,1,3.3612.7492,7.7839,7.7839,0,0,1,2.42,1.9207,8.3336,8.3336,0,0,1,1.4791,2.5734,7.7053,7.7053,0,0,1,.2315,4.7438,7.678,7.678,0,0,1-.8081,1.9592l-.075.1158.1136.0761a7.3129,7.3129,0,0,1,2.8231,3.0547,8.4351,8.4351,0,0,1,.9046,3.7063,8.0711,8.0711,0,0,1-.4994,2.7084,8.4109,8.4109,0,0,1-1.4791,2.5734,7.81,7.81,0,0,1-2.42,1.9207,7.1873,7.1873,0,0,1-3.3612.7492h-24.047V214.368Zm0,10.986a2.9863,2.9863,0,0,0,1.3462-.2883,3.09,3.09,0,0,0,.96-.73,3.071,3.071,0,0,0,0-4.0332,3.1036,3.1036,0,0,0-.96-.73,2.9849,2.9849,0,0,0-1.3462-.2883h-16.71v6.07Zm2.69,10.9474a3.0925,3.0925,0,0,0,1.3634-.2872,2.9792,2.9792,0,0,0,1.5562-1.7095,2.9164,2.9164,0,0,0,0-2.0751,3.0635,3.0635,0,0,0-.5766-.9785,3.0282,3.0282,0,0,0-.98-.73,3.0789,3.0789,0,0,0-1.3634-.2883h-19.4v6.0685Zm19.7813-21.9334h21.32v4.9164h-21.32a3.0922,3.0922,0,0,0-1.3633.2883,2.9789,2.9789,0,0,0-1.5563,1.7095,2.9135,2.9135,0,0,0,0,2.074,2.9789,2.9789,0,0,0,1.5563,1.7095,3.0936,3.0936,0,0,0,1.3633.2883h16.2872a7.3721,7.3721,0,0,1,3.0353.6334,7.8758,7.8758,0,0,1,2.478,1.7289,8.1046,8.1046,0,0,1,1.6506,2.5166,7.78,7.78,0,0,1,.596,3.0343,8.0689,8.0689,0,0,1-.5,2.7084,8.3241,8.3241,0,0,1-1.4791,2.5734,7.8108,7.8108,0,0,1-2.42,1.9207,7.1879,7.1879,0,0,1-3.3612.7492H299.5481v-4.9175h21.3568a3.0923,3.0923,0,0,0,1.3633-.2872,2.98,2.98,0,0,0,1.5563-1.7095,2.8868,2.8868,0,0,0,0-2.0751,2.9823,2.9823,0,0,0-1.5563-1.7084,3.0787,3.0787,0,0,0-1.3633-.2883H304.6177a7.4484,7.4484,0,0,1-3.0739-.6345,7.7475,7.7475,0,0,1-2.4566-1.7085,8.0272,8.0272,0,0,1-2.2294-5.57,8.0733,8.0733,0,0,1,.5-2.7084,8.3336,8.3336,0,0,1,1.4791-2.5734,7.7421,7.7421,0,0,1,2.4394-1.9207A7.2179,7.2179,0,0,1,304.6177,214.368Z"/><g class="cls-4"><path class="cls-5" d="M202.9976,15.8434A16.136,16.136,0,0,1,219.1347-.2937H301.28a16.1356,16.1356,0,0,1,16.135,16.1371V28.2593a4.4009,4.4009,0,0,1-8.8017,0V15.8434A7.3334,7.3334,0,0,0,301.28,8.508H219.1347a7.3352,7.3352,0,0,0-7.3354,7.3354V97.9888a7.3333,7.3333,0,0,0,7.3354,7.3333H301.28a7.3315,7.3315,0,0,0,7.3333-7.3333V51.2817a4.4009,4.4009,0,1,1,8.8017,0V97.9888a16.1351,16.1351,0,0,1-16.135,16.135H219.1347a16.1356,16.1356,0,0,1-16.1371-16.135Z"/></g><path class="cls-6" d="M260.5,36.4078A8.7739,8.7739,0,0,0,256.7443,53.11a3.7582,3.7582,0,0,1,2.0161,4.3838l-5.8689,21.518H268.11l-5.8689-21.518a3.7572,3.7572,0,0,1,2.0143-4.3838A8.7739,8.7739,0,0,0,260.5,36.4078Zm-16.29,8.7713a16.29,16.29,0,1,1,26.0264,13.06l6.4219,23.5433a3.7592,3.7592,0,0,1-3.6275,4.7482H247.9693a3.7614,3.7614,0,0,1-3.6275-4.7482l6.4219-23.5433A16.264,16.264,0,0,1,244.21,45.1791Z"/></svg>