<?xml version="1.0" encoding="utf-8"?>
<!-- Generator: Adobe Illustrator 27.7.0, SVG Export Plug-In . SVG Version: 6.00 Build 0)  -->
<svg version="1.1" id="Layer_1" xmlns="http://www.w3.org/2000/svg" xmlns:xlink="http://www.w3.org/1999/xlink" x="0px" y="0px"
	 viewBox="0 0 471.2 76.1" style="enable-background:new 0 0 471.2 76.1;" xml:space="preserve">
<style type="text/css">
	.st0{fill:#3B3E3F;}
	.st1{fill:#38B6FF;}
	.st2{fill:none;stroke:#38B6FF;stroke-width:9.2976;stroke-linecap:round;stroke-miterlimit:2.4794;}
</style>
<g>
	<g transform="translate(7.183792, 205.099148)">
		<g>
			<path class="st0" d="M-7.2-185.4h67.7v11.3H32.3v45.1H21v-45.1H-7.2V-185.4z"/>
		</g>
	</g>
</g>
<g>
	<g transform="translate(73.058106, 205.099148)">
		<g>
			<path class="st0" d="M16.4-162.9h23.3v11.3H16.4V-162.9z"/>
		</g>
	</g>
</g>
<g>
	<g transform="translate(108.050521, 205.099148)">
		<g>
			<path class="st0" d="M28.1-185.4h11.3v22.6h45.1v-22.6h11.3v56.4H84.5v-22.6H39.3v22.6H28.1V-185.4z"/>
		</g>
	</g>
</g>
<g>
	<g transform="translate(176.347075, 205.099148)">
		<g>
			<path class="st1" d="M50.8-168.7c0-2.3,0.4-4.5,1.3-6.5c0.9-2,2.1-3.8,3.6-5.3c1.5-1.5,3.3-2.7,5.3-3.6c2-0.9,4.2-1.3,6.5-1.3h34
				c2.3,0,4.5,0.4,6.5,1.3c2,0.9,3.8,2.1,5.3,3.6c1.5,1.5,2.7,3.3,3.6,5.3c0.9,2,1.3,4.2,1.3,6.5v22.9c0,2.3-0.4,4.5-1.3,6.5
				c-0.9,2-2.1,3.8-3.6,5.3s-3.3,2.7-5.3,3.6c-2,0.9-4.2,1.3-6.5,1.3h-34c-2.3,0-4.5-0.4-6.5-1.3c-2-0.9-3.8-2.1-5.3-3.6
				c-1.5-1.5-2.7-3.3-3.6-5.3c-0.9-2-1.3-4.2-1.3-6.5V-168.7z M62.1-145.8c0,1.5,0.5,2.8,1.6,3.9c1.1,1.1,2.4,1.6,3.9,1.6h34
				c1.6,0,2.9-0.5,3.9-1.6c1.1-1.1,1.6-2.4,1.6-3.9v-22.9c0-1.5-0.5-2.8-1.6-3.9c-1-1.1-2.3-1.6-3.9-1.6h-34c-1.5,0-2.8,0.5-3.9,1.6
				c-1.1,1.1-1.6,2.4-1.6,3.9V-145.8z"/>
		</g>
	</g>
</g>
<g>
	<g transform="translate(244.520753, 205.099148)">
		<g>
			<path class="st0" d="M85.8-185.4l21.6,21.6l21.7-21.6h12.2v56.4h-11.3v-41.4l-18.8,18.9h-7.5l-18.9-18.9v41.4H73.6v-56.4H85.8z"
				/>
		</g>
	</g>
</g>
<g>
	<g transform="translate(312.81244, 205.099148)">
		<g>
			<path class="st0" d="M96.3-162.9h62v11.3h-50.8v11.3h50.8v11.3h-62V-162.9z M96.3-185.4h62v11.3h-62V-185.4z"/>
		</g>
	</g>
</g>
<path class="st2" d="M232.6,4.6h56.3"/>
</svg>
