
<svg xmlns="http://www.w3.org/2000/svg" fill="currentColor" 
	 viewBox="0 0 90.95 90.97" >

<g>
	<path class="st0" d="M90.95,45.32c0.14,24.94-20.11,45.39-45.19,45.64C20.68,91.22-0.08,70.54,0,45.39
		C0.08,20.36,20.43,0.03,45.44,0C70.43-0.03,90.81,20.27,90.95,45.32z M83.83,45.26c-0.14-21.3-17.19-38.2-38.45-38.14
		C24.09,7.19,7.14,24.17,7.12,45.46C7.1,66.93,24.38,84.06,45.82,83.84C67.13,83.62,83.97,66.53,83.83,45.26z"/>
	<path class="st0" d="M68.24,34.84c-0.11,1.64-1.17,2.7-2.26,3.74c-7.82,7.45-15.69,14.86-23.43,22.39
		c-2.41,2.34-4.55,2.4-6.89,0.16c-3.73-3.56-7.44-7.14-11.18-10.68c-1.82-1.72-2.53-3.68-0.65-5.64c1.97-2.04,3.89-0.96,5.66,0.61
		c3.28,2.92,9.87,8.08,9.87,8.08s6.6-5.57,9.86-8.64c4.23-3.99,8.45-7.99,12.68-11.99c1.15-1.09,2.45-1.8,4.05-1.08
		C67.24,32.37,67.98,33.44,68.24,34.84z"/>
</g>
</svg>
