
<svg xmlns="http://www.w3.org/2000/svg" 
	 viewBox="0 0 83.9 97.96" fill="currentColor">

<g>
	<path class="st0" d="M83.9,55.77c0.07,23.18-18.57,42.08-41.62,42.19C18.88,98.07-0.02,79.29,0,55.93
		c0.01-23.13,18.76-41.91,41.87-41.94C65,13.96,83.83,32.68,83.9,55.77z M76.88,56.19c0.08-19.28-15.43-35.04-34.6-35.17
		C23.01,20.88,7.19,36.35,7.02,55.51C6.83,75.03,22.45,90.9,41.86,90.94C61.09,90.97,76.8,75.39,76.88,56.19z"/>
	<path class="st0" d="M41.8,7.02c-3.15,0-6.3-0.01-9.45,0c-2.5,0.01-4.36-0.96-4.29-3.66C28.13,0.98,29.86,0,32.15,0
		c6.46,0,12.93,0.01,19.39,0c2.5,0,4.39,0.96,4.29,3.66c-0.11,2.7-2.15,3.42-4.58,3.38C48.1,6.98,44.95,7.02,41.8,7.02z"/>
	<path class="st0" d="M62.74,38.97c-0.11,1.46-1.13,2.35-2.06,3.29c-5.03,5.05-10.09,10.06-15.1,15.14
		c-1.83,1.85-3.97,3.03-6.03,0.97c-2.06-2.07-0.86-4.21,0.98-6.03c5.19-5.13,10.3-10.32,15.49-15.45c1.33-1.32,2.85-2.39,4.85-1.21
		C62.12,36.41,62.7,37.55,62.74,38.97z"/>
</g>
</svg>
