<svg viewBox="0 0 168 156" fill="currentColor" xmlns="http://www.w3.org/2000/svg">
<path fill-rule="evenodd" clip-rule="evenodd" d="M0 150C0 146.686 2.68629 144 6 144H162C165.314 144 168 146.686 168 150C168 153.314 165.314 156 162 156H6C2.68629 156 0 153.314 0 150Z" />
<path fill-rule="evenodd" clip-rule="evenodd" d="M27.5147 3.51472C29.7652 1.26429 32.8174 0 36 0H132C135.183 0 138.235 1.26428 140.485 3.51472C142.736 5.76516 144 8.81741 144 12V150C144 153.314 141.314 156 138 156C134.686 156 132 153.314 132 150L132 12H36L36 150C36 153.314 33.3137 156 30 156C26.6863 156 24 153.314 24 150V12C24 8.8174 25.2643 5.76515 27.5147 3.51472Z" />
<path d="M105 87C109.971 87 114 82.9706 114 78C114 73.0294 109.971 69 105 69C100.029 69 96 73.0294 96 78C96 82.9706 100.029 87 105 87Z" />
</svg>
