<svg viewBox="0 0 132 156" fill="currentColor" xmlns="http://www.w3.org/2000/svg">
<path fill-rule="evenodd" clip-rule="evenodd" d="M3.51472 3.51472C5.76515 1.26429 8.8174 0 12 0H84C85.5913 0 87.1174 0.632141 88.2426 1.75736L130.243 43.7574C131.368 44.8826 132 46.4087 132 48V144C132 147.183 130.736 150.235 128.485 152.485C126.235 154.736 123.183 156 120 156H12C8.81741 156 5.76516 154.736 3.51472 152.485C1.26428 150.235 0 147.183 0 144V12C0 8.8174 1.26429 5.76515 3.51472 3.51472ZM81.5147 12L12 12L12 144H120V50.4853L81.5147 12Z" />
<path fill-rule="evenodd" clip-rule="evenodd" d="M84 0C87.3137 0 90 2.68629 90 6V42H126C129.314 42 132 44.6863 132 48C132 51.3137 129.314 54 126 54H84C80.6863 54 78 51.3137 78 48V6C78 2.68629 80.6863 0 84 0Z" />
</svg>
