<svg  viewBox="0 0 168 114" fill="currentColor" xmlns="http://www.w3.org/2000/svg">
<path fill-rule="evenodd" clip-rule="evenodd" d="M111.361 17.401C102.594 13.799 93.2015 11.9636 83.7231 12L83.7209 12.0001C44.0573 12.1383 12 44.9242 12 84.8251V102H156V84C156 74.5215 154.129 65.1363 150.493 56.3827C146.857 47.6292 141.529 39.6796 134.814 32.9902C128.099 26.3008 120.129 21.003 111.361 17.401ZM83.6791 0.000124777C94.7365 -0.0421192 105.694 2.09921 115.922 6.30128C126.15 10.5036 135.448 16.6843 143.283 24.4886C151.117 32.293 157.334 41.5675 161.575 51.7799C165.817 61.9924 168 72.9419 168 84.0001V102C168 105.183 166.736 108.235 164.485 110.485C162.235 112.736 159.183 114 156 114H12C8.81741 114 5.76516 112.736 3.51472 110.485C1.26428 108.235 0 105.183 0 102V84.8251C0 38.4768 37.2415 0.163117 83.6769 0.000132883" />
<path fill-rule="evenodd" clip-rule="evenodd" d="M84 0C87.3137 0 90 2.68629 90 6V30C90 33.3137 87.3137 36 84 36C80.6863 36 78 33.3137 78 30V6C78 2.68629 80.6863 0 84 0Z" />
<path fill-rule="evenodd" clip-rule="evenodd" d="M2.82917 62.2732C3.6862 59.0722 6.97585 57.1721 10.1768 58.0291L33.4268 64.2541C36.6278 65.1111 38.5279 68.4008 37.6709 71.6018C36.8138 74.8027 33.5242 76.7029 30.3232 75.8458L7.07323 69.6208C3.87227 68.7638 1.97214 65.4741 2.82917 62.2732Z" />
<path fill-rule="evenodd" clip-rule="evenodd" d="M165.171 62.2732C166.028 65.4741 164.128 68.7638 160.927 69.6208L137.677 75.8458C134.476 76.7029 131.186 74.8027 130.329 71.6018C129.472 68.4008 131.372 65.1111 134.573 64.2541L157.823 58.0291C161.024 57.1721 164.314 59.0722 165.171 62.2732Z" />
<path fill-rule="evenodd" clip-rule="evenodd" d="M120.504 36.4158C123.132 38.4336 123.627 42.2002 121.609 44.8287L70.3094 111.654C68.2916 114.282 64.525 114.777 61.8965 112.759C59.268 110.742 58.773 106.975 60.7908 104.346L112.091 37.5215C114.109 34.893 117.875 34.398 120.504 36.4158Z" />
</svg>
