<svg viewBox="0 0 168 168" fill="currentColor" xmlns="http://www.w3.org/2000/svg">
<path fill-rule="evenodd" clip-rule="evenodd" d="M60 12C33.4903 12 12 33.4903 12 60C12 86.5097 33.4903 108 60 108C86.5097 108 108 86.5097 108 60C108 33.4903 86.5097 12 60 12ZM0 60C0 26.8629 26.8629 0 60 0C93.1371 0 120 26.8629 120 60C120 93.1371 93.1371 120 60 120C26.8629 120 0 93.1371 0 60Z" />
<path fill-rule="evenodd" clip-rule="evenodd" d="M108 60C81.4903 60 60 81.4903 60 108C60 134.51 81.4903 156 108 156C134.51 156 156 134.51 156 108C156 81.4903 134.51 60 108 60ZM48 108C48 74.8629 74.8629 48 108 48C141.137 48 168 74.8629 168 108C168 141.137 141.137 168 108 168C74.8629 168 48 141.137 48 108Z" />
<path fill-rule="evenodd" clip-rule="evenodd" d="M75.6324 57.6324C77.9755 55.2892 81.7745 55.2892 84.1176 57.6324L110.368 83.8824C112.711 86.2255 112.711 90.0245 110.368 92.3676C108.024 94.7108 104.226 94.7108 101.882 92.3676L75.6324 66.1176C73.2892 63.7745 73.2892 59.9755 75.6324 57.6324Z" />
<path fill-rule="evenodd" clip-rule="evenodd" d="M57.6324 75.6324C59.9755 73.2892 63.7745 73.2892 66.1176 75.6324L92.3676 101.882C94.7108 104.226 94.7108 108.024 92.3676 110.368C90.0245 112.711 86.2255 112.711 83.8824 110.368L57.6324 84.1176C55.2892 81.7745 55.2892 77.9755 57.6324 75.6324Z" />
</svg>
