<svg viewBox="0 0 144 162" fill="currentColor" xmlns="http://www.w3.org/2000/svg">
<path fill-rule="evenodd" clip-rule="evenodd" d="M0 84C0 80.6863 2.68629 78 6 78H138C141.314 78 144 80.6863 144 84C144 87.3137 141.314 90 138 90H6C2.68629 90 0 87.3137 0 84Z" />
<path fill-rule="evenodd" clip-rule="evenodd" d="M0 108C0 104.686 2.68629 102 6 102H138C141.314 102 144 104.686 144 108C144 111.314 141.314 114 138 114H6C2.68629 114 0 111.314 0 108Z" />
<path fill-rule="evenodd" clip-rule="evenodd" d="M0 132C0 128.686 2.68629 126 6 126H138C141.314 126 144 128.686 144 132C144 135.314 141.314 138 138 138H6C2.68629 138 0 135.314 0 132Z" />
<path fill-rule="evenodd" clip-rule="evenodd" d="M0 66C0 59.3726 5.37258 54 12 54H132C138.627 54 144 59.3726 144 66V150C144 156.627 138.627 162 132 162H12C5.37258 162 0 156.627 0 150V66ZM132 66H12V150H132V66Z" />
<path fill-rule="evenodd" clip-rule="evenodd" d="M72 12C66.4305 12 61.089 14.2125 57.1508 18.1508C53.2125 22.089 51 27.4305 51 33V60C51 63.3137 48.3137 66 45 66C41.6863 66 39 63.3137 39 60V33C39 24.2479 42.4768 15.8542 48.6655 9.66548C54.8542 3.47678 63.2479 0 72 0C80.7521 0 89.1458 3.47678 95.3345 9.66548C101.523 15.8542 105 24.2479 105 33V60C105 63.3137 102.314 66 99 66C95.6863 66 93 63.3137 93 60V33C93 27.4305 90.7875 22.089 86.8492 18.1508C82.911 14.2125 77.5695 12 72 12Z" />
</svg>
