<?xml version="1.0" encoding="utf-8"?>
<!-- Generator: Adobe Illustrator 26.1.0, SVG Export Plug-In . SVG Version: 6.00 Build 0)  -->
<svg version="1.1" id="Layer_1" xmlns="http://www.w3.org/2000/svg" xmlns:xlink="http://www.w3.org/1999/xlink" x="0px" y="0px"
	 viewBox="0 0 192 192" style="enable-background:new 0 0 192 192;" xml:space="preserve">
<style type="text/css">
	.st0{fill:none;}
	.st1{fill:none;stroke:#000000;stroke-width:12;stroke-linecap:round;stroke-linejoin:round;stroke-miterlimit:3;}
	.st2{fill:none;stroke:#000000;stroke-width:12;stroke-miterlimit:10;}
</style>
<g>
	<path class="st2" d="M96.03,89.21c20.07,0,40.15,0.01,60.22-0.03c1.13,0,1.4,0.27,1.4,1.4c-0.04,24.74-0.03,49.49-0.03,74.23
		c0,1.48,0,1.48-1.29,0.76c-19.69-11.01-39.39-22.01-59.06-33.04c-0.92-0.52-1.59-0.52-2.51,0.01
		c-19.68,11.04-39.39,22.03-59.09,33.04c-1.28,0.71-1.28,0.72-1.28-0.8c0-24.74,0.01-49.49-0.02-74.23c0-1.04,0.22-1.36,1.33-1.36
		C55.8,89.22,75.91,89.21,96.03,89.21z"/>
	<path class="st2" d="M96.01,42.56c-20.07,0-40.15-0.01-60.22,0.03c-1.23,0-1.45-0.35-1.43-1.48c0.06-4.63,0.06-9.26,0-13.89
		c-0.01-1.06,0.3-1.26,1.3-1.26c36.76,0.03,73.52,0.02,110.28,0.02c3.5,0,7,0.03,10.5-0.02c0.86-0.01,1.19,0.15,1.18,1.12
		c-0.06,4.78-0.05,9.57,0,14.35c0.01,0.93-0.25,1.14-1.15,1.14C136.31,42.55,116.16,42.56,96.01,42.56z"/>
	<path class="st2" d="M96.07,74.14c-20.11,0-40.23-0.01-60.34,0.02c-1.03,0-1.39-0.2-1.38-1.32c0.07-4.71,0.05-9.42,0.01-14.12
		c-0.01-0.92,0.25-1.17,1.17-1.17c40.31,0.02,80.61,0.02,120.92,0c0.91,0,1.17,0.23,1.17,1.15c-0.05,4.71-0.06,9.42,0,14.12
		c0.01,1.05-0.25,1.34-1.33,1.34C136.22,74.13,116.15,74.14,96.07,74.14z"/>
</g>
</svg>
