<svg viewBox="0 0 164 184" fill="currentColor" xmlns="http://www.w3.org/2000/svg">
<path fill-rule="evenodd" clip-rule="evenodd" d="M154.17 90.6275C154.207 90.6276 154.201 90.629 154.159 90.6275C154.163 90.6275 154.166 90.6275 154.17 90.6275ZM148.624 85.082C148.624 85.0854 148.624 85.0887 148.624 85.092C148.622 85.0496 148.624 85.0437 148.624 85.082ZM148.615 90.6375C148.584 113.629 148.585 136.627 148.587 159.614C148.587 161.068 148.587 162.522 148.587 163.976C145.724 162.375 142.86 160.775 139.997 159.175C122.206 149.23 104.42 139.288 86.6525 129.325C85.4664 128.656 83.7384 127.922 81.5742 127.928C79.4258 127.935 77.7092 128.67 76.5193 129.349C59.3942 138.956 42.253 148.53 25.1043 158.108C21.5974 160.066 18.0901 162.025 14.5827 163.985C14.5828 161.523 14.583 159.06 14.5832 156.598C14.585 134.618 14.5868 112.63 14.5644 90.6471C32.0622 90.6681 49.5665 90.6663 67.0716 90.6646C71.9194 90.6641 76.7672 90.6636 81.615 90.6636C85.6437 90.6636 89.6731 90.6639 93.7032 90.6643C112.001 90.6658 130.311 90.6673 148.615 90.6375ZM14.5582 85.0467C14.5582 85.0042 14.5598 85.0095 14.5582 85.0533C14.5582 85.0511 14.5582 85.0489 14.5582 85.0467ZM163.081 85.0127C163.081 85.0406 163.081 85.0649 163.081 85.0856L163.081 85.0973C163.041 109.929 163.042 134.769 163.044 159.61C163.044 164.578 163.045 169.546 163.045 174.515C163.045 174.539 163.045 174.568 163.045 174.6C163.046 174.926 163.048 175.635 162.983 176.268C162.946 176.629 162.847 177.449 162.49 178.387C162.113 179.38 161.231 181.051 159.291 182.195C157.349 183.339 155.456 183.299 154.399 183.146C153.401 183.001 152.635 182.687 152.301 182.543C151.716 182.291 151.097 181.943 150.813 181.784C150.785 181.768 150.76 181.754 150.739 181.742L150.734 181.74C144.807 178.426 138.879 175.112 132.95 171.798C115.833 162.23 98.7109 152.659 81.608 143.071C65.1288 152.312 48.6307 161.527 32.1383 170.738C25.5649 174.41 18.9924 178.081 12.4223 181.752L12.4122 181.758L12.4021 181.764C12.3813 181.775 12.3562 181.789 12.3272 181.805C12.0527 181.959 11.4311 182.306 10.8483 182.556C10.5133 182.699 9.72948 183.019 8.70825 183.158C7.61083 183.308 5.69032 183.317 3.74994 182.119C1.84302 180.942 1.00347 179.268 0.651098 178.31C0.313234 177.392 0.219791 176.591 0.184529 176.235C0.122496 175.61 0.124195 174.906 0.125011 174.568C0.125092 174.535 0.125165 174.505 0.125165 174.479C0.125165 168.517 0.125647 162.554 0.126129 156.592C0.128056 132.745 0.129983 108.898 0.101074 85.0582L0.101069 85.0494C0.101069 85.0302 0.100813 85.0059 0.100506 84.9769C0.093657 84.3276 0.0617404 81.3026 2.31653 78.8587C4.7899 76.1779 8.06926 76.1815 8.89131 76.1824C8.90561 76.1824 8.91916 76.1824 8.93195 76.1824H8.94274V76.1824C28.3075 76.2113 47.679 76.2094 67.0649 76.2075C71.914 76.207 76.764 76.2065 81.615 76.2065C85.6463 76.2065 89.6776 76.2068 93.7087 76.2072C113.861 76.2088 134.01 76.2105 154.151 76.1704L154.166 76.1704C154.186 76.1704 154.211 76.1702 154.238 76.17C154.972 76.1651 158.154 76.144 160.631 78.6204C163.107 81.0968 163.086 84.2793 163.081 85.0127Z" />
<path fill-rule="evenodd" clip-rule="evenodd" d="M148.541 14.4975C147.395 14.4973 146.254 14.4947 145.122 14.492C143.985 14.4894 142.857 14.4867 141.744 14.4867C132.888 14.4867 124.032 14.4872 115.176 14.4877C81.6508 14.4895 48.1227 14.4913 14.5949 14.467C14.6025 16.3216 14.6021 18.1761 14.5938 20.0306C32.8968 20.0008 51.2055 20.0023 69.5024 20.0038C73.5325 20.0042 77.5621 20.0045 81.5909 20.0045C87.6583 20.0045 93.7263 20.0038 99.7952 20.003C116.04 20.001 132.29 19.999 148.544 20.0114C148.537 18.1751 148.535 16.3368 148.541 14.4975ZM148.588 25.9459C148.588 25.9472 148.588 25.9484 148.588 25.9494L148.588 25.9473C148.588 25.9468 148.588 25.9463 148.588 25.9459ZM9.03652 20.0406C9.01128 20.0406 9.01858 20.0395 9.0537 20.0406C9.04797 20.0406 9.04225 20.0406 9.03652 20.0406ZM14.5447 25.63C14.5454 25.6545 14.5453 25.6677 14.545 25.6682C14.5448 25.6687 14.5444 25.6565 14.5447 25.63ZM8.88374 14.4626C8.83637 14.4626 8.84092 14.4643 8.88706 14.4626C8.88399 14.4626 8.88091 14.4626 8.87784 14.4626L8.88251 8.73731L7.31755 8.75207L8.88252 8.73179L8.88374 7.23408V14.4626ZM160.172 1.952C163.07 4.40791 163.053 7.79546 163.044 8.65792L163.044 8.67414C162.973 14.3627 162.984 20.0752 163.044 25.794C163.044 25.8089 163.045 25.8253 163.045 25.8432C163.054 26.5707 163.097 29.7455 160.534 32.1998C158.123 34.5074 155.116 34.4798 154.494 34.4741C154.469 34.4739 154.448 34.4737 154.431 34.4737L154.423 34.4737C136.212 34.4556 118.009 34.4578 99.8032 34.4601C93.7329 34.4609 87.6623 34.4616 81.5909 34.4616C77.5595 34.4616 73.5282 34.4613 69.497 34.4609C49.3449 34.4593 29.196 34.4576 9.05477 34.4977L9.04036 34.4978C9.02475 34.4978 9.00798 34.4978 8.99011 34.4978C8.13787 34.4992 4.74869 34.5048 2.24567 31.7287C-0.0296577 29.2052 0.0678058 26.0822 0.0880278 25.4342C0.0890004 25.403 0.0897943 25.3776 0.0901373 25.3582L7.31755 25.4862L0.0896122 25.3925C0.161089 19.8769 0.161089 14.3613 0.0896122 8.84574L0.0894473 8.833L0.0893273 8.82026C0.0892043 8.8072 0.0890538 8.79325 0.0888941 8.77844C0.0802667 7.97811 0.0443684 4.64796 2.78852 2.15948C5.22283 -0.048038 8.22729 -0.00387418 8.81607 0.00478026C8.84428 0.00519503 8.86695 0.00552823 8.88374 0.00552823H8.88964C44.316 0.0344421 79.7418 0.0325153 115.171 0.0305879C124.029 0.0301059 132.886 0.0296239 141.744 0.0296239C142.932 0.0296239 144.105 0.0323642 145.267 0.0350809C148.313 0.0421974 151.289 0.0491532 154.291 0.00626528L154.301 0.00612855L154.31 0.00601653C154.324 0.005862 154.343 0.00530304 154.367 0.00458379C154.878 -0.0103824 157.758 -0.0947582 160.172 1.952Z" />
<path fill-rule="evenodd" clip-rule="evenodd" d="M148.541 51.8987C147.395 51.8986 146.254 51.8959 145.122 51.8932C143.985 51.8906 142.857 51.888 141.744 51.888C132.888 51.888 124.032 51.8884 115.176 51.8889C81.6508 51.8907 48.1227 51.8926 14.5949 51.8683C14.6025 53.7228 14.6021 55.5773 14.5938 57.4318C32.8968 57.402 51.2055 57.4036 69.5024 57.4051C73.5325 57.4054 77.5621 57.4057 81.5909 57.4057C87.6583 57.4057 93.7263 57.405 99.7952 57.4042C116.04 57.4022 132.29 57.4002 148.544 57.4126C148.537 55.5763 148.535 53.738 148.541 51.8987ZM148.588 63.3471C148.588 63.3485 148.588 63.3496 148.588 63.3506L148.588 63.3485C148.588 63.348 148.588 63.3476 148.588 63.3471ZM9.03652 57.4419C9.01128 57.4418 9.01858 57.4407 9.0537 57.4418C9.04797 57.4419 9.04225 57.4419 9.03652 57.4419ZM14.5447 63.0312C14.5454 63.0557 14.5453 63.069 14.545 63.0695C14.5448 63.07 14.5444 63.0577 14.5447 63.0312ZM8.88374 51.8639C8.83637 51.8639 8.84092 51.8655 8.88706 51.8639C8.88399 51.8639 8.88091 51.8639 8.87784 51.8639L8.88251 46.1385L7.31755 46.1533L8.88252 46.133L8.88374 44.6353V51.8639ZM160.172 39.3532C163.07 41.8091 163.053 45.1967 163.044 46.0592L163.044 46.0754C162.973 51.7639 162.984 57.4765 163.044 63.1952C163.044 63.2101 163.045 63.2265 163.045 63.2444C163.054 63.9719 163.097 67.1468 160.534 69.601C158.123 71.9086 155.116 71.881 154.494 71.8753C154.469 71.8751 154.448 71.8749 154.431 71.8749L154.423 71.8749C136.212 71.8568 118.009 71.8591 99.8032 71.8613C93.7329 71.8621 87.6623 71.8628 81.5909 71.8628C77.5595 71.8628 73.5282 71.8625 69.497 71.8622C49.3449 71.8605 29.196 71.8588 9.05477 71.899L9.04036 71.899C9.02475 71.899 9.00798 71.899 8.99011 71.899C8.13787 71.9004 4.74869 71.906 2.24567 69.1299C-0.0296577 66.6064 0.0678058 63.4834 0.0880278 62.8354C0.0890004 62.8043 0.0897943 62.7788 0.0901373 62.7595L7.31755 62.8874L0.0896122 62.7937C0.161089 57.2781 0.161089 51.7626 0.0896122 46.247L0.0894473 46.2342L0.0893273 46.2215C0.0892043 46.2084 0.0890538 46.1945 0.0888941 46.1797C0.0802667 45.3793 0.0443684 42.0492 2.78852 39.5607C5.22283 37.3532 8.22729 37.3974 8.81607 37.406C8.84428 37.4064 8.86695 37.4068 8.88374 37.4068H8.88964C44.316 37.4357 79.7418 37.4337 115.171 37.4318C124.029 37.4313 132.886 37.4309 141.744 37.4309C142.932 37.4309 144.105 37.4336 145.267 37.4363C148.313 37.4434 151.289 37.4504 154.291 37.4075L154.301 37.4074L154.31 37.4072C154.324 37.4071 154.343 37.4065 154.367 37.4058C154.878 37.3908 157.758 37.3065 160.172 39.3532Z" />
</svg>
