<svg data-name="Layer 1"
    xmlns="http://www.w3.org/2000/svg" viewBox="0 0 328.993 328.993">
    <defs>
        <clipPath id="a">
            <path style="fill:none" d="M0 0h328.993v328.993H0z"/>
        </clipPath>
    </defs>
    <g style="clip-path:url(#a)">
        <path d="M-.844 45.556a46.397 46.397 0 0 1 46.4-46.4h236.198a46.396 46.396 0 0 1 46.394 46.4v35.7a12.654 12.654 0 0 1-25.308 0v-35.7a21.086 21.086 0 0 0-21.086-21.092H45.556a21.091 21.091 0 0 0-21.092 21.092v236.198a21.086 21.086 0 0 0 21.092 21.086h236.198a21.081 21.081 0 0 0 21.086-21.086v-134.3a12.654 12.654 0 0 1 25.308 0v134.3a46.394 46.394 0 0 1-46.394 46.394H45.556a46.396 46.396 0 0 1-46.4-46.394Z" style="fill-rule:evenodd;fill:#2f455c"/>
    </g>
    <path d="M164.496 104.686a25.228 25.228 0 0 0-10.799 48.025 10.806 10.806 0 0 1 5.797 12.605l-16.875 61.872h43.76l-16.875-61.872a10.803 10.803 0 0 1 5.792-12.605 25.228 25.228 0 0 0-10.8-48.025Zm-46.84 25.22a46.84 46.84 0 1 1 74.836 37.553l18.465 67.695a10.81 10.81 0 0 1-10.43 13.653h-72.061a10.816 10.816 0 0 1-10.43-13.653L136.5 167.46a46.765 46.765 0 0 1-18.845-37.552Z" style="fill:#50aecb;fill-rule:evenodd"/>
</svg>