<?xml version="1.0" encoding="UTF-8"?><svg id="a" xmlns="http://www.w3.org/2000/svg" xmlns:xlink="http://www.w3.org/1999/xlink" viewBox="0 0 500 500"><defs><style>.c{fill:none;}.d{fill:#2f455c;}.d,.e{fill-rule:evenodd;}.e{fill:#50aecb;}.f{clip-path:url(#b);}</style><clipPath id="b"><rect class="c" width="500" height="500"/></clipPath></defs><g class="f"><path class="d" d="M-1.28,69.24C-1.29,30.29,30.28-1.28,69.23-1.28H428.21c38.94,0,70.51,31.57,70.51,70.51h0v54.26c-.03,10.62-8.66,19.21-19.28,19.18-10.58-.03-19.15-8.6-19.18-19.18v-54.26c0-17.7-14.34-32.05-32.04-32.06H69.24c-17.7,0-32.05,14.35-32.06,32.05h0V428.21c0,17.7,14.35,32.05,32.05,32.05H428.21c17.69,0,32.04-14.34,32.05-32.03V224.1c.03-10.62,8.66-19.21,19.28-19.18,10.58,.03,19.15,8.6,19.18,19.18v204.11c0,38.94-31.57,70.51-70.51,70.51H69.24c-38.94,0-70.51-31.56-70.52-70.51h0V69.24Z"/></g><path class="e" d="M250,159.1c-21.18,0-38.34,17.18-38.33,38.35,0,14.81,8.54,28.29,21.92,34.63,7.19,3.41,10.9,11.48,8.81,19.16l-25.65,94.03h66.51l-25.65-94.03c-2.09-7.67,1.61-15.75,8.8-19.16,19.13-9.07,27.29-31.94,18.22-51.07-6.34-13.38-19.83-21.91-34.63-21.92h0Zm-71.19,38.33c0-39.32,31.87-71.19,71.19-71.19,39.32,0,71.19,31.87,71.19,71.19,0,22.48-10.62,43.64-28.64,57.07l28.06,102.88c2.39,8.75-2.77,17.78-11.53,20.17-1.41,.38-2.86,.58-4.32,.58h-109.52c-9.08,0-16.43-7.37-16.43-16.45,0-1.45,.19-2.9,.58-4.3l28.06-102.88c-18.04-13.42-28.66-34.59-28.64-57.07Z"/></svg>