<?xml version="1.0" encoding="UTF-8"?><svg id="a" xmlns="http://www.w3.org/2000/svg" viewBox="0 0 500 500"><defs><style>.b{fill:#fefefe;}.c{fill:#2775c9;}</style></defs><path class="c" d="M240.28,.02h20.94c.2,.4,.58,.23,.88,.24,12.29,.54,24.49,1.96,36.57,4.3,22.85,4.43,44.71,11.85,65.42,22.48,40.87,20.98,73.66,50.88,98.05,89.82,22.54,35.99,34.88,75.28,37.42,117.67,.09,1.5-.08,3.03,.43,4.5v17.94c-.07,.57-.17,1.13-.19,1.7-.37,10.8-1.48,21.53-3.25,32.19-4.19,25.23-12.01,49.29-23.75,72.01-24.52,47.44-60.5,83.57-107.91,108.15-31.77,16.47-65.67,25.32-101.39,27.15-22.09,1.13-43.98-.62-65.61-5.26-27.21-5.84-52.75-15.95-76.53-30.39-31.16-18.93-57.04-43.49-77.39-73.76C18.19,350.42,4.26,308.08,1.83,261.98c-1.22-23.23,.7-46.23,5.99-68.89,11.91-50.97,37.3-94.09,76.07-129.26,20.63-18.71,43.87-33.4,69.53-44.23C179.8,8.47,207.32,2.12,235.91,.45c1.45-.08,2.95,.11,4.37-.43Zm26.05,146.82v-11.09c-.03-5.02-3.8-8.95-8.85-9.03-4.98-.08-9.97-.03-14.95-.01-1.94,0-3.7,.6-5.11,1.96-2.09,2.02-3.26,4.52-3.28,7.42-.05,7.23-.03,14.46,0,21.68,0,.87-.2,1.2-1.13,1.33-8.41,1.22-16.42,3.67-23.84,7.89-11.45,6.51-19.7,15.73-23.75,28.44-2.22,6.96-2.53,14.1-1.84,21.31,.54,5.7,1.77,11.22,4.22,16.43,4.38,9.31,11.76,15.49,20.86,19.84,8.53,4.08,17.62,6.3,26.87,7.98,6.49,1.18,13.07,1.75,19.52,3.21,6.12,1.39,12.2,2.84,17.91,5.52,5.22,2.46,9.7,5.82,11.6,11.52,2.43,7.3,2.22,14.58-1.39,21.5-3.95,7.57-10.5,12.01-18.5,14.26-11.16,3.13-22.3,2.41-33.21-1.27-7.27-2.46-12.69-7.26-16.03-14.26-1.44-3.01-2.35-6.19-3.07-9.44-.84-3.82-3.61-6.35-7.1-6.38-6.06-.05-12.13-.06-18.19,0-3.83,.04-6.7,2.97-6.89,6.81-.11,2.36,.52,4.61,1.06,6.86,3.73,15.63,12.31,27.66,26.43,35.56,8.02,4.49,16.7,7.04,25.72,8.57,1.79,.3,1.8,.26,1.8,2.12,0,7.44,0,14.87,0,22.31,0,5.14,3.85,9.05,9.03,9.11,4.82,.06,9.64,.01,14.46,.01,2.02,0,3.88-.5,5.38-1.92,2.11-2,3.3-4.5,3.33-7.4,.07-7.43,.06-14.87-.02-22.31-.01-1.32,.37-1.72,1.63-1.95,9.24-1.68,17.91-4.89,25.77-10.1,11.3-7.48,19.13-17.56,22.72-30.73,2.34-8.56,2.25-17.24,.85-25.94-2.12-13.23-8.81-23.34-20.53-30.03-7.77-4.43-16.21-6.92-24.86-8.85-8.76-1.96-17.72-2.67-26.54-4.24-6.05-1.08-12.03-2.48-17.61-5.17-4.77-2.3-8.83-5.42-10.68-10.59-2.24-6.26-2.36-12.64-.06-18.91,2.52-6.84,7.84-10.77,14.56-12.9,8.75-2.77,17.67-2.71,26.61-1.09,6.75,1.22,12.56,4.19,16.92,9.65,2.65,3.32,4.38,7.11,5.78,11.09,1.08,3.08,3.87,5.16,7.08,5.19,5.69,.06,11.38,.1,17.07-.01,4.6-.09,7.77-4.22,6.91-8.75-4.3-22.6-22.67-39.53-45.63-41.99-.95-.1-1.03-.52-1.03-1.27,.02-3.99,0-7.98,0-11.96Zm171.87,108c.02-4.79-.16-9.56-.47-14.33-.93-14.14-3.36-28.01-7.57-41.53-15.87-51.02-47.55-88.92-94.82-113.79-9.16-4.82-18.78-8.55-28.57-11.87-2.27-.77-4.54-.54-6.25,1.25-1.7,1.78-2.96,3.92-3,6.48-.07,5.15,.03,10.3-.06,15.45-.07,4.15,4.06,9.75,8.02,11.22,28.13,10.45,51.25,27.73,69.25,51.72,17.75,23.67,27.92,50.32,30.61,79.81,1,10.96,.75,21.9-.65,32.81-1.49,11.6-4.4,22.86-8.38,33.86-10.58,29.19-28.27,53.08-53.15,71.62-11.89,8.86-24.84,15.76-38.71,20.98-4.19,1.58-6.63,4.64-6.86,9.18-.15,2.94-.11,5.9-.1,8.84,.01,2.86-.16,5.73,.11,8.59,.37,3.96,3.6,6.92,7.23,6.84,1.5-.03,2.65-.88,3.97-1.32,3.43-1.13,6.83-2.3,10.2-3.61,33.51-13.04,61.13-33.89,82.48-62.81,23.98-32.49,35.97-69.1,36.72-109.43Zm-374.89-4.97c-.04,5.95,.23,11.88,.73,17.8,1.07,12.65,3.32,25.09,7.05,37.22,14.24,46.31,41.96,82.21,83.41,107.39,12.68,7.7,26.24,13.48,40.31,18.11,2.44,.8,4.81,.44,6.49-1.58,1.53-1.83,2.72-3.93,2.71-6.49-.02-4.94,.03-9.89,0-14.83-.03-3.74-3.69-8.85-7.24-10.14-6.4-2.34-12.61-5.08-18.63-8.26-25.03-13.24-44.95-31.96-59.72-56.1-12.68-20.73-20.08-43.23-22.26-67.45-1.09-12.18-.68-24.31,1.14-36.39,2.11-13.99,6.22-27.41,11.89-40.34,12.16-27.75,31.03-49.87,56.26-66.59,9.9-6.56,20.46-11.8,31.56-16,4.29-1.63,6.71-4.76,6.94-9.4,.1-2.11,.1-4.23,.08-6.35-.03-3.61,.19-7.23-.11-10.84-.36-4.29-3.92-7.27-7.93-6.84-1.25,.13-2.2,.93-3.34,1.3-11.88,3.82-23.28,8.75-34.17,14.86-23.76,13.33-43.7,30.99-59.61,53.09-23.17,32.19-34.83,68.22-35.56,107.83Z"/><path class="b" d="M266.32,146.84c0,3.99,.01,7.98,0,11.96,0,.75,.08,1.17,1.03,1.27,22.95,2.46,41.33,19.39,45.63,41.99,.86,4.53-2.31,8.66-6.91,8.75-5.69,.11-11.38,.07-17.07,.01-3.21-.04-6-2.12-7.08-5.19-1.4-3.98-3.13-7.77-5.78-11.09-4.36-5.46-10.17-8.43-16.92-9.65-8.93-1.61-17.86-1.68-26.61,1.09-6.71,2.13-12.04,6.05-14.56,12.9-2.31,6.26-2.18,12.65,.06,18.91,1.85,5.17,5.9,8.29,10.68,10.59,5.58,2.69,11.56,4.09,17.61,5.17,8.82,1.57,17.78,2.28,26.54,4.24,8.65,1.94,17.1,4.43,24.86,8.85,11.72,6.68,18.41,16.79,20.53,30.03,1.4,8.7,1.49,17.37-.85,25.94-3.6,13.17-11.42,23.25-22.72,30.73-7.86,5.2-16.53,8.42-25.77,10.1-1.26,.23-1.64,.63-1.63,1.95,.08,7.43,.08,14.87,.02,22.31-.03,2.9-1.22,5.4-3.33,7.4-1.5,1.42-3.36,1.92-5.38,1.92-4.82,0-9.64,.04-14.46-.01-5.18-.06-9.02-3.97-9.03-9.11-.01-7.44,0-14.87,0-22.31,0-1.86,0-1.82-1.8-2.12-9.01-1.52-17.7-4.08-25.72-8.57-14.12-7.9-22.7-19.94-26.43-35.56-.54-2.25-1.17-4.5-1.06-6.86,.19-3.84,3.05-6.77,6.89-6.81,6.06-.07,12.13-.06,18.19,0,3.49,.03,6.27,2.56,7.1,6.38,.71,3.25,1.63,6.43,3.07,9.44,3.34,7,8.75,11.8,16.03,14.26,10.9,3.68,22.05,4.4,33.21,1.27,8-2.24,14.55-6.69,18.5-14.26,3.61-6.93,3.82-14.2,1.39-21.5-1.9-5.7-6.37-9.06-11.6-11.52-5.71-2.68-11.79-4.13-17.91-5.52-6.45-1.46-13.03-2.03-19.52-3.21-9.25-1.68-18.34-3.9-26.87-7.98-9.1-4.35-16.48-10.53-20.86-19.84-2.45-5.2-3.68-10.73-4.22-16.43-.69-7.22-.37-14.35,1.84-21.31,4.05-12.71,12.3-21.92,23.75-28.44,7.41-4.21,15.43-6.67,23.84-7.89,.93-.13,1.13-.46,1.13-1.33-.03-7.23-.05-14.46,0-21.68,.02-2.91,1.19-5.4,3.28-7.42,1.41-1.36,3.17-1.95,5.11-1.96,4.98-.02,9.97-.07,14.95,.01,5.05,.09,8.83,4.02,8.85,9.03v.12c0,3.66,0,7.31,0,10.97Z"/><path class="b" d="M438.19,254.84c-.75,40.33-12.74,76.94-36.72,109.43-21.35,28.92-48.97,49.77-82.48,62.81-3.36,1.31-6.77,2.49-10.2,3.61-1.32,.43-2.47,1.28-3.97,1.32-3.63,.08-6.86-2.88-7.23-6.84-.27-2.86-.1-5.73-.11-8.59-.01-2.95-.05-5.9,.1-8.84,.24-4.54,2.67-7.61,6.86-9.18,13.87-5.23,26.82-12.12,38.71-20.98,24.89-18.55,42.58-42.44,53.15-71.62,3.99-11,6.89-22.26,8.38-33.86,1.4-10.91,1.65-21.85,.65-32.81-2.69-29.49-12.86-56.14-30.61-79.81-18-23.99-41.12-41.27-69.25-51.72-3.96-1.47-8.09-7.07-8.02-11.22,.09-5.15-.01-10.3,.06-15.45,.03-2.56,1.3-4.7,3-6.48,1.71-1.79,3.98-2.02,6.25-1.25,9.79,3.32,19.41,7.05,28.57,11.87,47.27,24.87,78.95,62.77,94.82,113.79,4.21,13.52,6.64,27.4,7.57,41.53,.31,4.77,.49,9.54,.47,14.33Z"/><path class="b" d="M63.3,249.86c.73-39.61,12.39-75.64,35.56-107.83,15.91-22.11,35.85-39.76,59.61-53.09,10.88-6.11,22.28-11.04,34.17-14.86,1.14-.37,2.08-1.16,3.34-1.3,4-.43,7.57,2.56,7.93,6.84,.3,3.6,.08,7.22,.11,10.84,.02,2.12,.03,4.24-.08,6.35-.23,4.65-2.64,7.78-6.94,9.4-11.1,4.2-21.66,9.44-31.56,16-25.23,16.72-44.09,38.84-56.26,66.59-5.67,12.93-9.78,26.35-11.89,40.34-1.82,12.08-2.23,24.21-1.14,36.39,2.17,24.22,9.57,46.73,22.26,67.45,14.77,24.14,34.69,42.86,59.72,56.1,6.02,3.18,12.24,5.93,18.63,8.26,3.55,1.3,7.21,6.4,7.24,10.14,.03,4.94-.02,9.89,0,14.83,0,2.56-1.19,4.66-2.71,6.49-1.68,2.02-4.06,2.38-6.49,1.58-14.06-4.63-27.63-10.41-40.31-18.11-41.45-25.19-69.17-61.08-83.41-107.39-3.73-12.13-5.98-24.57-7.05-37.22-.5-5.92-.76-11.85-.73-17.8Z"/></svg>