<svg id="Layer_1" data-name="Layer 1" xmlns="http://www.w3.org/2000/svg" viewBox="0 0 697.938 45.6548"><defs><style>.cls-1{fill:#2f455c;}.cls-2{fill:#50aecb;}</style></defs><path class="cls-1" d="M0,0H56.01V10.03H33.4756V45.6548H22.5348V10.03H0ZM74.7673,0V17.78H108.895V0h10.9419V45.6548H108.895V27.8092H74.7673V45.6548H63.8254V0ZM128.954,10.03V0h51.5178V10.03Zm0,7.75h51.5178v10.03H139.8959v7.8161h40.5759V45.6548H128.954Zm60.6349,14.0676v-18.04a12.8916,12.8916,0,0,1,1.1725-5.471,14.0624,14.0624,0,0,1,7.6855-7.2946A14.7816,14.7816,0,0,1,203.9826,0h27.1593a14.7858,14.7858,0,0,1,5.5357,1.0419,14.2154,14.2154,0,0,1,4.5585,2.898A13.7485,13.7485,0,0,1,244.33,8.3365a13.2069,13.2069,0,0,1,1.14,5.471v18.04a12.9844,12.9844,0,0,1-1.14,5.4386,13.85,13.85,0,0,1-3.0934,4.3631,14.6881,14.6881,0,0,1-4.5585,2.9315,14.3865,14.3865,0,0,1-5.5357,1.0743H203.9826a14.3825,14.3825,0,0,1-5.5357-1.0743,14.6753,14.6753,0,0,1-4.5585-2.9315,14.3091,14.3091,0,0,1-3.127-4.3631A12.6752,12.6752,0,0,1,189.5889,31.8473Zm11.7236,2.3452a3.6067,3.6067,0,0,0,1.1066,1.042,2.9863,2.9863,0,0,0,1.5635.3908h27.1593a2.9938,2.9938,0,0,0,2.4423-1.1726,4.0621,4.0621,0,0,0,.9436-2.6054v-18.04a4.0621,4.0621,0,0,0-.9436-2.6054,2.9941,2.9941,0,0,0-2.4423-1.1726H203.9826a2.9854,2.9854,0,0,0-1.5635.3909,3.6052,3.6052,0,0,0-1.1066,1.0419,5.8155,5.8155,0,0,0-.5863,1.3021,3.8349,3.8349,0,0,0-.1955,1.0431v18.04a3.8291,3.8291,0,0,0,.1955,1.042A5.7534,5.7534,0,0,0,201.3125,34.1925ZM254.5857,0h41.6178a14.7865,14.7865,0,0,1,5.5357,1.0419,14.0618,14.0618,0,0,1,7.6854,7.2946,12.8917,12.8917,0,0,1,1.1726,5.471v4.6892a12.674,12.674,0,0,1-1.1726,5.4374,14.3132,14.3132,0,0,1-3.1269,4.3642,14.6648,14.6648,0,0,1-4.5585,2.93,14.3668,14.3668,0,0,1-5.5357,1.0743h-30.676V45.6548H254.5857V22.2735h41.6178a3.0835,3.0835,0,0,0,2.4423-1.205,3.9388,3.9388,0,0,0,1.01-2.5718V13.8075a3.8341,3.8341,0,0,0-.1954-1.0431,5.82,5.82,0,0,0-.5863-1.3021,3.6314,3.6314,0,0,0-1.1067-1.0419,2.9908,2.9908,0,0,0-1.5634-.3909H254.5857Zm64.7377,10.03V0h51.5178V10.03Zm0,7.75h51.5178v10.03H330.2653v7.8161h40.5759V45.6548H319.3234ZM378.655,0h56.01V10.03H412.1306V45.6548H401.19V10.03H378.655ZM484.0982,0a14.7861,14.7861,0,0,1,5.5357,1.0419,14.0618,14.0618,0,0,1,7.6854,7.2946,12.89,12.89,0,0,1,1.1726,5.471v4.6892a13.0872,13.0872,0,0,1-1.1078,5.405A13.4193,13.4193,0,0,1,494.3555,28.2a14.6538,14.6538,0,0,1-4.4938,2.8979,15.8246,15.8246,0,0,1-5.4386,1.205l14.9153,13.3518H483.5119l-22.99-20.45V22.2735h23.5768a3.0835,3.0835,0,0,0,2.4423-1.205,3.9388,3.9388,0,0,0,1.01-2.5718V13.8075a3.8341,3.8341,0,0,0-.1954-1.0431,5.82,5.82,0,0,0-.5863-1.3021,3.6314,3.6314,0,0,0-1.1067-1.0419,2.9908,2.9908,0,0,0-1.5634-.3909H453.4223V45.6548H442.48V0Zm21.6872,45.6548L528.9065,0h10.42L562.448,45.6548H549.1621L534.1173,15.8913,519.0724,45.6548Z"/><path class="cls-2" d="M577.19.5481V20.4417h19.8936v4.9737H572.2161V.5481Zm23.623,24.8673L613.2465.5481H618.22l12.4336,24.8673H624.437L615.7339,8.0081,607.03,25.4154ZM634.7394.5481h19.8947a7.2366,7.2366,0,0,1,2.913.5863,7.5269,7.5269,0,0,1,3.9607,3.9607,7.2356,7.2356,0,0,1,.5863,2.913,7.3617,7.3617,0,0,1-.2486,1.9185,7.5053,7.5053,0,0,1-.7112,1.74,7.4754,7.4754,0,0,1,2.5047,2.647,7.48,7.48,0,0,1,.3551,6.536,7.5109,7.5109,0,0,1-1.5982,2.381,7.59,7.59,0,0,1-2.3625,1.5981,7.2356,7.2356,0,0,1-2.913.5863h-22.381Zm19.8947,9.9474A2.4873,2.4873,0,0,0,657.12,8.0081a2.4874,2.4874,0,0,0-2.4863-2.4863h-14.921v4.9737Zm-14.921,9.9462H657.12a2.4868,2.4868,0,1,0,0-4.9736H639.7131ZM668.097,8.0081a7.2356,7.2356,0,0,1,.5863-2.913,7.4762,7.4762,0,0,1,3.9792-3.9607,7.2687,7.2687,0,0,1,2.8944-.5863h19.8948V5.5218H675.5569a2.4874,2.4874,0,0,0-2.4862,2.4863,2.4873,2.4873,0,0,0,2.4862,2.4874H690.478a7.2859,7.2859,0,0,1,2.8945.5852,7.5111,7.5111,0,0,1,2.381,1.5993,7.5921,7.5921,0,0,1,1.5982,2.3625,7.4837,7.4837,0,0,1,0,5.8075,7.4276,7.4276,0,0,1-3.9792,3.9791,7.2678,7.2678,0,0,1-2.8945.5863H670.5844V20.4417H690.478a2.4865,2.4865,0,0,0,1.7577-4.2451,2.3984,2.3984,0,0,0-1.7577-.7285H675.5569a7.2868,7.2868,0,0,1-2.8944-.5852,7.437,7.437,0,0,1-3.9792-3.9792A7.2685,7.2685,0,0,1,668.097,8.0081Z"/></svg>